ISO-10303-21;
HEADER;
/* Generated by software containing ST-Developer
 * from STEP Tools, Inc. (www.steptools.com) 
 */

FILE_DESCRIPTION(
/* description */ (''),
/* implementation_level */ '2;1');

FILE_NAME(
/* name */ 'Servo_Holder.step',
/* time_stamp */ '2026-02-24T14:41:32+01:00',
/* author */ (''),
/* organization */ (''),
/* preprocessor_version */ 'ST-DEVELOPER v20.1',
/* originating_system */ 'Autodesk Translation Framework v14.24.0.0',
/* authorisation */ '');

FILE_SCHEMA (('AUTOMOTIVE_DESIGN { 1 0 10303 214 3 1 1 }'));
ENDSEC;

DATA;
#10=MECHANICAL_DESIGN_GEOMETRIC_PRESENTATION_REPRESENTATION('',(#13),#1597);
#11=SHAPE_REPRESENTATION_RELATIONSHIP('SRR','None',#1604,#12);
#12=ADVANCED_BREP_SHAPE_REPRESENTATION('',(#14),#1596);
#13=STYLED_ITEM('',(#1613),#14);
#14=MANIFOLD_SOLID_BREP('Body1',#888);
#15=FACE_BOUND('',#99,.T.);
#16=FACE_BOUND('',#101,.T.);
#17=FACE_BOUND('',#103,.T.);
#18=FACE_BOUND('',#106,.T.);
#19=FACE_BOUND('',#107,.T.);
#20=FACE_BOUND('',#108,.T.);
#21=FACE_BOUND('',#109,.T.);
#22=FACE_BOUND('',#110,.T.);
#23=FACE_BOUND('',#111,.T.);
#24=FACE_BOUND('',#116,.T.);
#25=FACE_BOUND('',#117,.T.);
#26=FACE_BOUND('',#118,.T.);
#27=FACE_BOUND('',#119,.T.);
#28=FACE_BOUND('',#146,.T.);
#29=PLANE('',#917);
#30=PLANE('',#919);
#31=PLANE('',#920);
#32=PLANE('',#924);
#33=PLANE('',#927);
#34=PLANE('',#940);
#35=PLANE('',#941);
#36=PLANE('',#950);
#37=PLANE('',#952);
#38=PLANE('',#957);
#39=PLANE('',#960);
#40=PLANE('',#961);
#41=PLANE('',#962);
#42=PLANE('',#963);
#43=PLANE('',#964);
#44=PLANE('',#965);
#45=PLANE('',#966);
#46=PLANE('',#967);
#47=PLANE('',#968);
#48=PLANE('',#969);
#49=PLANE('',#970);
#50=PLANE('',#974);
#51=PLANE('',#975);
#52=PLANE('',#976);
#53=FACE_OUTER_BOUND('',#93,.T.);
#54=FACE_OUTER_BOUND('',#94,.T.);
#55=FACE_OUTER_BOUND('',#95,.T.);
#56=FACE_OUTER_BOUND('',#96,.T.);
#57=FACE_OUTER_BOUND('',#97,.T.);
#58=FACE_OUTER_BOUND('',#98,.T.);
#59=FACE_OUTER_BOUND('',#100,.T.);
#60=FACE_OUTER_BOUND('',#102,.T.);
#61=FACE_OUTER_BOUND('',#104,.T.);
#62=FACE_OUTER_BOUND('',#105,.T.);
#63=FACE_OUTER_BOUND('',#112,.T.);
#64=FACE_OUTER_BOUND('',#113,.T.);
#65=FACE_OUTER_BOUND('',#114,.T.);
#66=FACE_OUTER_BOUND('',#115,.T.);
#67=FACE_OUTER_BOUND('',#120,.T.);
#68=FACE_OUTER_BOUND('',#121,.T.);
#69=FACE_OUTER_BOUND('',#122,.T.);
#70=FACE_OUTER_BOUND('',#123,.T.);
#71=FACE_OUTER_BOUND('',#124,.T.);
#72=FACE_OUTER_BOUND('',#125,.T.);
#73=FACE_OUTER_BOUND('',#126,.T.);
#74=FACE_OUTER_BOUND('',#127,.T.);
#75=FACE_OUTER_BOUND('',#128,.T.);
#76=FACE_OUTER_BOUND('',#129,.T.);
#77=FACE_OUTER_BOUND('',#130,.T.);
#78=FACE_OUTER_BOUND('',#131,.T.);
#79=FACE_OUTER_BOUND('',#132,.T.);
#80=FACE_OUTER_BOUND('',#133,.T.);
#81=FACE_OUTER_BOUND('',#134,.T.);
#82=FACE_OUTER_BOUND('',#135,.T.);
#83=FACE_OUTER_BOUND('',#136,.T.);
#84=FACE_OUTER_BOUND('',#137,.T.);
#85=FACE_OUTER_BOUND('',#138,.T.);
#86=FACE_OUTER_BOUND('',#139,.T.);
#87=FACE_OUTER_BOUND('',#140,.T.);
#88=FACE_OUTER_BOUND('',#141,.T.);
#89=FACE_OUTER_BOUND('',#142,.T.);
#90=FACE_OUTER_BOUND('',#143,.T.);
#91=FACE_OUTER_BOUND('',#144,.T.);
#92=FACE_OUTER_BOUND('',#145,.T.);
#93=EDGE_LOOP('',(#574,#575,#576,#577,#578,#579,#580,#581,#582,#583,#584));
#94=EDGE_LOOP('',(#585,#586,#587,#588,#589,#590,#591,#592));
#95=EDGE_LOOP('',(#593,#594,#595,#596,#597,#598,#599,#600));
#96=EDGE_LOOP('',(#601,#602,#603,#604,#605,#606,#607,#608));
#97=EDGE_LOOP('',(#609,#610,#611,#612,#613,#614));
#98=EDGE_LOOP('',(#615,#616,#617,#618,#619));
#99=EDGE_LOOP('',(#620));
#100=EDGE_LOOP('',(#621,#622,#623,#624,#625,#626));
#101=EDGE_LOOP('',(#627));
#102=EDGE_LOOP('',(#628,#629,#630,#631,#632));
#103=EDGE_LOOP('',(#633));
#104=EDGE_LOOP('',(#634,#635,#636,#637));
#105=EDGE_LOOP('',(#638,#639,#640,#641,#642,#643,#644,#645,#646,#647,#648,
#649,#650,#651));
#106=EDGE_LOOP('',(#652));
#107=EDGE_LOOP('',(#653));
#108=EDGE_LOOP('',(#654));
#109=EDGE_LOOP('',(#655));
#110=EDGE_LOOP('',(#656));
#111=EDGE_LOOP('',(#657,#658,#659,#660,#661,#662,#663,#664,#665,#666,#667,
#668));
#112=EDGE_LOOP('',(#669,#670,#671,#672));
#113=EDGE_LOOP('',(#673,#674,#675,#676));
#114=EDGE_LOOP('',(#677,#678,#679,#680));
#115=EDGE_LOOP('',(#681,#682,#683,#684,#685,#686,#687,#688,#689,#690,#691,
#692,#693,#694,#695,#696,#697,#698,#699,#700,#701,#702,#703,#704,#705,#706));
#116=EDGE_LOOP('',(#707));
#117=EDGE_LOOP('',(#708));
#118=EDGE_LOOP('',(#709));
#119=EDGE_LOOP('',(#710));
#120=EDGE_LOOP('',(#711,#712,#713,#714));
#121=EDGE_LOOP('',(#715,#716,#717,#718));
#122=EDGE_LOOP('',(#719,#720,#721,#722));
#123=EDGE_LOOP('',(#723,#724,#725,#726));
#124=EDGE_LOOP('',(#727,#728,#729,#730));
#125=EDGE_LOOP('',(#731,#732,#733,#734,#735,#736,#737,#738,#739,#740,#741,
#742,#743));
#126=EDGE_LOOP('',(#744,#745,#746,#747));
#127=EDGE_LOOP('',(#748,#749,#750,#751));
#128=EDGE_LOOP('',(#752,#753,#754,#755));
#129=EDGE_LOOP('',(#756,#757,#758,#759));
#130=EDGE_LOOP('',(#760,#761,#762,#763));
#131=EDGE_LOOP('',(#764,#765,#766,#767));
#132=EDGE_LOOP('',(#768,#769,#770,#771,#772,#773,#774));
#133=EDGE_LOOP('',(#775,#776,#777,#778));
#134=EDGE_LOOP('',(#779,#780,#781,#782));
#135=EDGE_LOOP('',(#783,#784,#785,#786));
#136=EDGE_LOOP('',(#787,#788,#789,#790));
#137=EDGE_LOOP('',(#791,#792,#793,#794));
#138=EDGE_LOOP('',(#795,#796,#797,#798));
#139=EDGE_LOOP('',(#799,#800,#801,#802));
#140=EDGE_LOOP('',(#803,#804,#805,#806));
#141=EDGE_LOOP('',(#807,#808,#809,#810));
#142=EDGE_LOOP('',(#811,#812,#813,#814,#815,#816,#817,#818));
#143=EDGE_LOOP('',(#819,#820,#821,#822));
#144=EDGE_LOOP('',(#823,#824,#825,#826));
#145=EDGE_LOOP('',(#827,#828,#829,#830));
#146=EDGE_LOOP('',(#831));
#147=B_SPLINE_CURVE_WITH_KNOTS('',3,(#1222,#1223,#1224,#1225,#1226,#1227,
#1228,#1229,#1230,#1231),.UNSPECIFIED.,.F.,.F.,(4,2,2,2,4),(0.316817747118352,
0.320769507393132,0.376087705390499,0.431405903387867,0.466140910375534),
 .UNSPECIFIED.);
#148=B_SPLINE_CURVE_WITH_KNOTS('',3,(#1233,#1234,#1235,#1236,#1237,#1238,
#1239,#1240,#1241,#1242),.UNSPECIFIED.,.F.,.F.,(4,2,2,2,4),(0.11253134082252,
0.13750769542474,0.211212353006889,0.26599093020001,0.316817747118352),
 .UNSPECIFIED.);
#149=B_SPLINE_CURVE_WITH_KNOTS('',3,(#1248,#1249,#1250,#1251,#1252,#1253,
#1254,#1255,#1256,#1257),.UNSPECIFIED.,.F.,.F.,(4,2,2,2,4),(0.766194914708631,
0.817021731626973,0.871800308820094,0.945504966402242,0.970481321004465),
 .UNSPECIFIED.);
#150=B_SPLINE_CURVE_WITH_KNOTS('',3,(#1259,#1260,#1261,#1262,#1263,#1264,
#1265,#1266,#1267,#1268),.UNSPECIFIED.,.F.,.F.,(4,2,2,2,4),(0.616871751451448,
0.651606758439116,0.706924956436484,0.762243154433851,0.766194914708631),
 .UNSPECIFIED.);
#151=B_SPLINE_CURVE_WITH_KNOTS('',3,(#1275,#1276,#1277,#1278,#1279,#1280,
#1281,#1282,#1283,#1284,#1285,#1286,#1287,#1288,#1289,#1290),
 .UNSPECIFIED.,.F.,.F.,(4,2,2,2,2,2,2,4),(1.1955440026495,1.22052035725172,
1.29422501483387,1.34900359202699,1.40378216922011,1.45910036721748,1.51441856521485,
1.54915357220252),.UNSPECIFIED.);
#152=B_SPLINE_CURVE_WITH_KNOTS('',3,(#1294,#1295,#1296,#1297,#1298,#1299,
#1300,#1301,#1302,#1303,#1304,#1305,#1306,#1307,#1308,#1309),
 .UNSPECIFIED.,.F.,.F.,(4,2,2,2,2,2,2,4),(1.69988441327843,1.7346194202661,
1.78993761826347,1.84525581626083,1.90003439345396,1.95481297064708,2.02851762822923,
2.05349398283145),.UNSPECIFIED.);
#153=B_SPLINE_CURVE_WITH_KNOTS('',3,(#1318,#1319,#1320,#1321,#1322,#1323,
#1324,#1325,#1326,#1327,#1328,#1329,#1330,#1331),.UNSPECIFIED.,.F.,.F.,
(4,2,2,2,2,2,4),(0.208936043564179,0.247917031749683,0.286568767968493,
0.325220504187303,0.363872240406113,0.402523976624923,0.441504964810427),
 .UNSPECIFIED.);
#154=B_SPLINE_CURVE_WITH_KNOTS('',3,(#1332,#1333,#1334,#1335,#1336,#1337,
#1338,#1339,#1340,#1341,#1342,#1343,#1344,#1345,#1346,#1347,#1348,#1349),
 .UNSPECIFIED.,.F.,.F.,(4,2,2,2,2,2,2,2,4),(0.738451552343409,0.821054567686669,
0.898358040124288,0.937009776343098,0.975661512561908,1.01431324878072,
1.05296498499953,1.13026845743715,1.21287147278041),.UNSPECIFIED.);
#155=B_SPLINE_CURVE_WITH_KNOTS('',3,(#1354,#1355,#1356,#1357,#1358,#1359,
#1360,#1361,#1362,#1363,#1364,#1365,#1366,#1367),.UNSPECIFIED.,.F.,.F.,
(4,2,2,2,2,2,4),(0.859377051938782,0.898358040124288,0.937009776343098,
0.975661512561908,1.01431324878072,1.05296498499953,1.09194597318503),
 .UNSPECIFIED.);
#156=B_SPLINE_CURVE_WITH_KNOTS('',3,(#1535,#1536,#1537,#1538,#1539,#1540,
#1541,#1542,#1543,#1544,#1545,#1546,#1547,#1548,#1549,#1550,#1551,#1552),
 .UNSPECIFIED.,.F.,.F.,(4,2,2,2,2,2,2,2,4),(0.0880105439688035,0.170613559312064,
0.247917031749683,0.286568767968493,0.325220504187303,0.363872240406113,
0.402523976624923,0.479827449062543,0.562430464405803),.UNSPECIFIED.);
#157=ELLIPSE('',#904,2.68700576850888,1.9);
#158=ELLIPSE('',#905,2.68700576850888,1.9);
#159=ELLIPSE('',#906,2.68700576850888,1.9);
#160=ELLIPSE('',#907,2.68700576850888,1.9);
#161=ELLIPSE('',#909,2.68700576850888,1.9);
#162=ELLIPSE('',#910,2.68700576850888,1.9);
#163=ELLIPSE('',#911,2.68700576850888,1.9);
#164=ELLIPSE('',#918,2.68700576850888,1.9);
#165=LINE('',#1218,#249);
#166=LINE('',#1312,#250);
#167=LINE('',#1317,#251);
#168=LINE('',#1353,#252);
#169=LINE('',#1371,#253);
#170=LINE('',#1373,#254);
#171=LINE('',#1375,#255);
#172=LINE('',#1377,#256);
#173=LINE('',#1380,#257);
#174=LINE('',#1383,#258);
#175=LINE('',#1385,#259);
#176=LINE('',#1387,#260);
#177=LINE('',#1388,#261);
#178=LINE('',#1391,#262);
#179=LINE('',#1395,#263);
#180=LINE('',#1401,#264);
#181=LINE('',#1403,#265);
#182=LINE('',#1404,#266);
#183=LINE('',#1407,#267);
#184=LINE('',#1411,#268);
#185=LINE('',#1414,#269);
#186=LINE('',#1418,#270);
#187=LINE('',#1422,#271);
#188=LINE('',#1426,#272);
#189=LINE('',#1429,#273);
#190=LINE('',#1440,#274);
#191=LINE('',#1442,#275);
#192=LINE('',#1444,#276);
#193=LINE('',#1446,#277);
#194=LINE('',#1448,#278);
#195=LINE('',#1450,#279);
#196=LINE('',#1452,#280);
#197=LINE('',#1454,#281);
#198=LINE('',#1456,#282);
#199=LINE('',#1458,#283);
#200=LINE('',#1460,#284);
#201=LINE('',#1461,#285);
#202=LINE('',#1463,#286);
#203=LINE('',#1466,#287);
#204=LINE('',#1469,#288);
#205=LINE('',#1472,#289);
#206=LINE('',#1473,#290);
#207=LINE('',#1475,#291);
#208=LINE('',#1477,#292);
#209=LINE('',#1479,#293);
#210=LINE('',#1481,#294);
#211=LINE('',#1483,#295);
#212=LINE('',#1485,#296);
#213=LINE('',#1487,#297);
#214=LINE('',#1489,#298);
#215=LINE('',#1491,#299);
#216=LINE('',#1493,#300);
#217=LINE('',#1495,#301);
#218=LINE('',#1497,#302);
#219=LINE('',#1499,#303);
#220=LINE('',#1501,#304);
#221=LINE('',#1503,#305);
#222=LINE('',#1504,#306);
#223=LINE('',#1506,#307);
#224=LINE('',#1510,#308);
#225=LINE('',#1514,#309);
#226=LINE('',#1525,#310);
#227=LINE('',#1526,#311);
#228=LINE('',#1528,#312);
#229=LINE('',#1530,#313);
#230=LINE('',#1532,#314);
#231=LINE('',#1554,#315);
#232=LINE('',#1559,#316);
#233=LINE('',#1561,#317);
#234=LINE('',#1563,#318);
#235=LINE('',#1564,#319);
#236=LINE('',#1566,#320);
#237=LINE('',#1567,#321);
#238=LINE('',#1569,#322);
#239=LINE('',#1571,#323);
#240=LINE('',#1574,#324);
#241=LINE('',#1576,#325);
#242=LINE('',#1577,#326);
#243=LINE('',#1579,#327);
#244=LINE('',#1580,#328);
#245=LINE('',#1583,#329);
#246=LINE('',#1586,#330);
#247=LINE('',#1588,#331);
#248=LINE('',#1590,#332);
#249=VECTOR('',#983,1.9);
#250=VECTOR('',#1000,1.9);
#251=VECTOR('',#1007,2.0485);
#252=VECTOR('',#1012,1.9);
#253=VECTOR('',#1015,10.);
#254=VECTOR('',#1016,10.);
#255=VECTOR('',#1017,10.);
#256=VECTOR('',#1018,3.);
#257=VECTOR('',#1021,3.);
#258=VECTOR('',#1024,1.4);
#259=VECTOR('',#1025,10.);
#260=VECTOR('',#1026,1.4);
#261=VECTOR('',#1027,10.);
#262=VECTOR('',#1030,1.4);
#263=VECTOR('',#1033,1.3);
#264=VECTOR('',#1040,1.);
#265=VECTOR('',#1041,1.4);
#266=VECTOR('',#1042,10.);
#267=VECTOR('',#1045,10.);
#268=VECTOR('',#1050,1.3);
#269=VECTOR('',#1053,3.);
#270=VECTOR('',#1056,1.3);
#271=VECTOR('',#1059,3.);
#272=VECTOR('',#1062,1.3);
#273=VECTOR('',#1065,3.);
#274=VECTOR('',#1074,1.);
#275=VECTOR('',#1075,1.);
#276=VECTOR('',#1076,1.);
#277=VECTOR('',#1077,1.);
#278=VECTOR('',#1078,1.);
#279=VECTOR('',#1079,1.);
#280=VECTOR('',#1080,1.);
#281=VECTOR('',#1081,1.);
#282=VECTOR('',#1082,1.);
#283=VECTOR('',#1083,1.);
#284=VECTOR('',#1084,1.);
#285=VECTOR('',#1085,1.);
#286=VECTOR('',#1088,10.);
#287=VECTOR('',#1091,10.);
#288=VECTOR('',#1094,10.);
#289=VECTOR('',#1097,1.3);
#290=VECTOR('',#1098,10.);
#291=VECTOR('',#1101,3.);
#292=VECTOR('',#1102,10.);
#293=VECTOR('',#1103,1.);
#294=VECTOR('',#1104,1.);
#295=VECTOR('',#1105,1.);
#296=VECTOR('',#1106,1.);
#297=VECTOR('',#1107,1.);
#298=VECTOR('',#1108,1.);
#299=VECTOR('',#1109,1.);
#300=VECTOR('',#1110,1.);
#301=VECTOR('',#1111,1.);
#302=VECTOR('',#1112,1.);
#303=VECTOR('',#1113,1.);
#304=VECTOR('',#1114,1.);
#305=VECTOR('',#1115,1.);
#306=VECTOR('',#1116,10.);
#307=VECTOR('',#1117,3.);
#308=VECTOR('',#1120,1.3);
#309=VECTOR('',#1123,3.);
#310=VECTOR('',#1136,10.);
#311=VECTOR('',#1137,10.);
#312=VECTOR('',#1140,10.);
#313=VECTOR('',#1143,10.);
#314=VECTOR('',#1146,10.);
#315=VECTOR('',#1151,1.9);
#316=VECTOR('',#1160,2.0785);
#317=VECTOR('',#1163,2.0785);
#318=VECTOR('',#1166,1.);
#319=VECTOR('',#1167,0.45085);
#320=VECTOR('',#1170,0.45085);
#321=VECTOR('',#1171,1.);
#322=VECTOR('',#1174,0.45085);
#323=VECTOR('',#1177,0.45085);
#324=VECTOR('',#1182,0.45085);
#325=VECTOR('',#1185,0.45085);
#326=VECTOR('',#1186,1.);
#327=VECTOR('',#1189,1.);
#328=VECTOR('',#1190,0.45085);
#329=VECTOR('',#1195,0.45085);
#330=VECTOR('',#1200,2.0785);
#331=VECTOR('',#1203,2.0785);
#332=VECTOR('',#1206,2.0485);
#333=CIRCLE('',#903,1.9);
#334=CIRCLE('',#912,1.9);
#335=CIRCLE('',#914,2.0485);
#336=CIRCLE('',#916,1.9);
#337=CIRCLE('',#921,2.5);
#338=CIRCLE('',#922,2.5);
#339=CIRCLE('',#923,2.0485);
#340=CIRCLE('',#926,2.5);
#341=CIRCLE('',#928,2.5);
#342=CIRCLE('',#929,2.5);
#343=CIRCLE('',#930,2.5);
#344=CIRCLE('',#931,2.5);
#345=CIRCLE('',#932,2.5);
#346=CIRCLE('',#933,2.0785);
#347=CIRCLE('',#934,2.0785);
#348=CIRCLE('',#935,2.0785);
#349=CIRCLE('',#936,2.0785);
#350=CIRCLE('',#939,2.5);
#351=CIRCLE('',#942,2.5);
#352=CIRCLE('',#943,2.5);
#353=CIRCLE('',#944,2.5);
#354=CIRCLE('',#945,2.0785);
#355=CIRCLE('',#946,2.0785);
#356=CIRCLE('',#947,2.0785);
#357=CIRCLE('',#948,2.0785);
#358=CIRCLE('',#955,1.9);
#359=CIRCLE('',#956,1.9);
#360=VERTEX_POINT('',#1215);
#361=VERTEX_POINT('',#1217);
#362=VERTEX_POINT('',#1219);
#363=VERTEX_POINT('',#1221);
#364=VERTEX_POINT('',#1232);
#365=VERTEX_POINT('',#1243);
#366=VERTEX_POINT('',#1245);
#367=VERTEX_POINT('',#1247);
#368=VERTEX_POINT('',#1258);
#369=VERTEX_POINT('',#1271);
#370=VERTEX_POINT('',#1272);
#371=VERTEX_POINT('',#1274);
#372=VERTEX_POINT('',#1291);
#373=VERTEX_POINT('',#1293);
#374=VERTEX_POINT('',#1311);
#375=VERTEX_POINT('',#1315);
#376=VERTEX_POINT('',#1351);
#377=VERTEX_POINT('',#1369);
#378=VERTEX_POINT('',#1370);
#379=VERTEX_POINT('',#1372);
#380=VERTEX_POINT('',#1374);
#381=VERTEX_POINT('',#1376);
#382=VERTEX_POINT('',#1378);
#383=VERTEX_POINT('',#1382);
#384=VERTEX_POINT('',#1384);
#385=VERTEX_POINT('',#1386);
#386=VERTEX_POINT('',#1390);
#387=VERTEX_POINT('',#1392);
#388=VERTEX_POINT('',#1394);
#389=VERTEX_POINT('',#1397);
#390=VERTEX_POINT('',#1400);
#391=VERTEX_POINT('',#1402);
#392=VERTEX_POINT('',#1406);
#393=VERTEX_POINT('',#1410);
#394=VERTEX_POINT('',#1413);
#395=VERTEX_POINT('',#1415);
#396=VERTEX_POINT('',#1417);
#397=VERTEX_POINT('',#1419);
#398=VERTEX_POINT('',#1421);
#399=VERTEX_POINT('',#1423);
#400=VERTEX_POINT('',#1425);
#401=VERTEX_POINT('',#1427);
#402=VERTEX_POINT('',#1430);
#403=VERTEX_POINT('',#1432);
#404=VERTEX_POINT('',#1434);
#405=VERTEX_POINT('',#1436);
#406=VERTEX_POINT('',#1438);
#407=VERTEX_POINT('',#1439);
#408=VERTEX_POINT('',#1441);
#409=VERTEX_POINT('',#1443);
#410=VERTEX_POINT('',#1445);
#411=VERTEX_POINT('',#1447);
#412=VERTEX_POINT('',#1449);
#413=VERTEX_POINT('',#1451);
#414=VERTEX_POINT('',#1453);
#415=VERTEX_POINT('',#1455);
#416=VERTEX_POINT('',#1457);
#417=VERTEX_POINT('',#1459);
#418=VERTEX_POINT('',#1465);
#419=VERTEX_POINT('',#1467);
#420=VERTEX_POINT('',#1471);
#421=VERTEX_POINT('',#1476);
#422=VERTEX_POINT('',#1478);
#423=VERTEX_POINT('',#1480);
#424=VERTEX_POINT('',#1482);
#425=VERTEX_POINT('',#1484);
#426=VERTEX_POINT('',#1486);
#427=VERTEX_POINT('',#1488);
#428=VERTEX_POINT('',#1490);
#429=VERTEX_POINT('',#1492);
#430=VERTEX_POINT('',#1494);
#431=VERTEX_POINT('',#1496);
#432=VERTEX_POINT('',#1498);
#433=VERTEX_POINT('',#1500);
#434=VERTEX_POINT('',#1502);
#435=VERTEX_POINT('',#1505);
#436=VERTEX_POINT('',#1507);
#437=VERTEX_POINT('',#1509);
#438=VERTEX_POINT('',#1511);
#439=VERTEX_POINT('',#1513);
#440=VERTEX_POINT('',#1516);
#441=VERTEX_POINT('',#1518);
#442=VERTEX_POINT('',#1520);
#443=VERTEX_POINT('',#1522);
#444=VERTEX_POINT('',#1553);
#445=EDGE_CURVE('',#360,#360,#333,.T.);
#446=EDGE_CURVE('',#360,#361,#165,.T.);
#447=EDGE_CURVE('',#362,#361,#157,.T.);
#448=EDGE_CURVE('',#363,#362,#147,.T.);
#449=EDGE_CURVE('',#364,#363,#148,.T.);
#450=EDGE_CURVE('',#365,#364,#158,.T.);
#451=EDGE_CURVE('',#366,#365,#159,.T.);
#452=EDGE_CURVE('',#367,#366,#149,.T.);
#453=EDGE_CURVE('',#368,#367,#150,.T.);
#454=EDGE_CURVE('',#361,#368,#160,.T.);
#455=EDGE_CURVE('',#369,#370,#161,.T.);
#456=EDGE_CURVE('',#371,#369,#151,.T.);
#457=EDGE_CURVE('',#372,#371,#162,.T.);
#458=EDGE_CURVE('',#373,#372,#152,.T.);
#459=EDGE_CURVE('',#370,#373,#163,.T.);
#460=EDGE_CURVE('',#370,#374,#166,.T.);
#461=EDGE_CURVE('',#374,#374,#334,.T.);
#462=EDGE_CURVE('',#375,#375,#335,.T.);
#463=EDGE_CURVE('',#375,#367,#167,.T.);
#464=EDGE_CURVE('',#366,#371,#153,.T.);
#465=EDGE_CURVE('',#369,#368,#154,.T.);
#466=EDGE_CURVE('',#376,#376,#336,.T.);
#467=EDGE_CURVE('',#376,#365,#168,.T.);
#468=EDGE_CURVE('',#372,#364,#155,.T.);
#469=EDGE_CURVE('',#377,#378,#169,.T.);
#470=EDGE_CURVE('',#378,#379,#170,.T.);
#471=EDGE_CURVE('',#379,#380,#171,.T.);
#472=EDGE_CURVE('',#380,#381,#172,.T.);
#473=EDGE_CURVE('',#381,#382,#164,.T.);
#474=EDGE_CURVE('',#382,#377,#173,.T.);
#475=EDGE_CURVE('',#383,#379,#174,.T.);
#476=EDGE_CURVE('',#384,#383,#175,.T.);
#477=EDGE_CURVE('',#385,#384,#176,.T.);
#478=EDGE_CURVE('',#380,#385,#177,.T.);
#479=EDGE_CURVE('',#378,#386,#178,.T.);
#480=EDGE_CURVE('',#387,#386,#337,.T.);
#481=EDGE_CURVE('',#387,#388,#179,.T.);
#482=EDGE_CURVE('',#383,#388,#338,.T.);
#483=EDGE_CURVE('',#389,#389,#339,.T.);
#484=EDGE_CURVE('',#377,#390,#180,.T.);
#485=EDGE_CURVE('',#390,#391,#181,.T.);
#486=EDGE_CURVE('',#386,#391,#182,.T.);
#487=EDGE_CURVE('',#388,#392,#183,.T.);
#488=EDGE_CURVE('',#392,#384,#340,.T.);
#489=EDGE_CURVE('',#393,#392,#184,.T.);
#490=EDGE_CURVE('',#391,#393,#341,.T.);
#491=EDGE_CURVE('',#394,#390,#185,.T.);
#492=EDGE_CURVE('',#395,#394,#342,.T.);
#493=EDGE_CURVE('',#396,#395,#186,.T.);
#494=EDGE_CURVE('',#397,#396,#343,.T.);
#495=EDGE_CURVE('',#398,#397,#187,.T.);
#496=EDGE_CURVE('',#399,#398,#344,.T.);
#497=EDGE_CURVE('',#399,#400,#188,.T.);
#498=EDGE_CURVE('',#401,#400,#345,.T.);
#499=EDGE_CURVE('',#385,#401,#189,.T.);
#500=EDGE_CURVE('',#402,#402,#346,.T.);
#501=EDGE_CURVE('',#403,#403,#347,.T.);
#502=EDGE_CURVE('',#404,#404,#348,.T.);
#503=EDGE_CURVE('',#405,#405,#349,.T.);
#504=EDGE_CURVE('',#406,#407,#190,.T.);
#505=EDGE_CURVE('',#407,#408,#191,.T.);
#506=EDGE_CURVE('',#408,#409,#192,.T.);
#507=EDGE_CURVE('',#409,#410,#193,.T.);
#508=EDGE_CURVE('',#410,#411,#194,.T.);
#509=EDGE_CURVE('',#411,#412,#195,.T.);
#510=EDGE_CURVE('',#412,#413,#196,.T.);
#511=EDGE_CURVE('',#413,#414,#197,.T.);
#512=EDGE_CURVE('',#414,#415,#198,.T.);
#513=EDGE_CURVE('',#415,#416,#199,.T.);
#514=EDGE_CURVE('',#416,#417,#200,.T.);
#515=EDGE_CURVE('',#417,#406,#201,.T.);
#516=EDGE_CURVE('',#393,#387,#202,.T.);
#517=EDGE_CURVE('',#394,#418,#203,.T.);
#518=EDGE_CURVE('',#418,#419,#350,.T.);
#519=EDGE_CURVE('',#419,#395,#204,.T.);
#520=EDGE_CURVE('',#420,#419,#205,.T.);
#521=EDGE_CURVE('',#396,#420,#206,.T.);
#522=EDGE_CURVE('',#377,#418,#207,.T.);
#523=EDGE_CURVE('',#382,#421,#208,.T.);
#524=EDGE_CURVE('',#421,#422,#209,.T.);
#525=EDGE_CURVE('',#422,#423,#210,.T.);
#526=EDGE_CURVE('',#423,#424,#211,.T.);
#527=EDGE_CURVE('',#424,#425,#212,.T.);
#528=EDGE_CURVE('',#425,#426,#213,.T.);
#529=EDGE_CURVE('',#426,#427,#214,.T.);
#530=EDGE_CURVE('',#427,#428,#215,.T.);
#531=EDGE_CURVE('',#428,#429,#216,.T.);
#532=EDGE_CURVE('',#429,#430,#217,.T.);
#533=EDGE_CURVE('',#430,#431,#218,.T.);
#534=EDGE_CURVE('',#431,#432,#219,.T.);
#535=EDGE_CURVE('',#432,#433,#220,.T.);
#536=EDGE_CURVE('',#433,#434,#221,.T.);
#537=EDGE_CURVE('',#434,#381,#222,.T.);
#538=EDGE_CURVE('',#435,#380,#223,.T.);
#539=EDGE_CURVE('',#436,#435,#351,.T.);
#540=EDGE_CURVE('',#437,#436,#224,.T.);
#541=EDGE_CURVE('',#438,#437,#352,.T.);
#542=EDGE_CURVE('',#439,#438,#225,.T.);
#543=EDGE_CURVE('',#420,#439,#353,.T.);
#544=EDGE_CURVE('',#440,#440,#354,.T.);
#545=EDGE_CURVE('',#441,#441,#355,.T.);
#546=EDGE_CURVE('',#442,#442,#356,.T.);
#547=EDGE_CURVE('',#443,#443,#357,.T.);
#548=EDGE_CURVE('',#435,#401,#226,.T.);
#549=EDGE_CURVE('',#400,#436,#227,.T.);
#550=EDGE_CURVE('',#437,#399,#228,.T.);
#551=EDGE_CURVE('',#398,#438,#229,.T.);
#552=EDGE_CURVE('',#439,#397,#230,.T.);
#553=EDGE_CURVE('',#362,#373,#156,.T.);
#554=EDGE_CURVE('',#361,#444,#231,.T.);
#555=EDGE_CURVE('',#421,#444,#358,.T.);
#556=EDGE_CURVE('',#444,#434,#359,.T.);
#557=EDGE_CURVE('',#402,#443,#232,.T.);
#558=EDGE_CURVE('',#403,#442,#233,.T.);
#559=EDGE_CURVE('',#411,#432,#234,.T.);
#560=EDGE_CURVE('',#410,#433,#235,.T.);
#561=EDGE_CURVE('',#424,#407,#236,.T.);
#562=EDGE_CURVE('',#425,#406,#237,.T.);
#563=EDGE_CURVE('',#408,#423,#238,.T.);
#564=EDGE_CURVE('',#422,#409,#239,.T.);
#565=EDGE_CURVE('',#426,#417,#240,.T.);
#566=EDGE_CURVE('',#428,#415,#241,.T.);
#567=EDGE_CURVE('',#416,#427,#242,.T.);
#568=EDGE_CURVE('',#430,#413,#243,.T.);
#569=EDGE_CURVE('',#414,#429,#244,.T.);
#570=EDGE_CURVE('',#412,#431,#245,.T.);
#571=EDGE_CURVE('',#405,#440,#246,.T.);
#572=EDGE_CURVE('',#404,#441,#247,.T.);
#573=EDGE_CURVE('',#363,#389,#248,.T.);
#574=ORIENTED_EDGE('',*,*,#445,.F.);
#575=ORIENTED_EDGE('',*,*,#446,.T.);
#576=ORIENTED_EDGE('',*,*,#447,.F.);
#577=ORIENTED_EDGE('',*,*,#448,.F.);
#578=ORIENTED_EDGE('',*,*,#449,.F.);
#579=ORIENTED_EDGE('',*,*,#450,.F.);
#580=ORIENTED_EDGE('',*,*,#451,.F.);
#581=ORIENTED_EDGE('',*,*,#452,.F.);
#582=ORIENTED_EDGE('',*,*,#453,.F.);
#583=ORIENTED_EDGE('',*,*,#454,.F.);
#584=ORIENTED_EDGE('',*,*,#446,.F.);
#585=ORIENTED_EDGE('',*,*,#455,.F.);
#586=ORIENTED_EDGE('',*,*,#456,.F.);
#587=ORIENTED_EDGE('',*,*,#457,.F.);
#588=ORIENTED_EDGE('',*,*,#458,.F.);
#589=ORIENTED_EDGE('',*,*,#459,.F.);
#590=ORIENTED_EDGE('',*,*,#460,.T.);
#591=ORIENTED_EDGE('',*,*,#461,.F.);
#592=ORIENTED_EDGE('',*,*,#460,.F.);
#593=ORIENTED_EDGE('',*,*,#462,.F.);
#594=ORIENTED_EDGE('',*,*,#463,.T.);
#595=ORIENTED_EDGE('',*,*,#452,.T.);
#596=ORIENTED_EDGE('',*,*,#464,.T.);
#597=ORIENTED_EDGE('',*,*,#456,.T.);
#598=ORIENTED_EDGE('',*,*,#465,.T.);
#599=ORIENTED_EDGE('',*,*,#453,.T.);
#600=ORIENTED_EDGE('',*,*,#463,.F.);
#601=ORIENTED_EDGE('',*,*,#466,.F.);
#602=ORIENTED_EDGE('',*,*,#467,.T.);
#603=ORIENTED_EDGE('',*,*,#450,.T.);
#604=ORIENTED_EDGE('',*,*,#468,.F.);
#605=ORIENTED_EDGE('',*,*,#457,.T.);
#606=ORIENTED_EDGE('',*,*,#464,.F.);
#607=ORIENTED_EDGE('',*,*,#451,.T.);
#608=ORIENTED_EDGE('',*,*,#467,.F.);
#609=ORIENTED_EDGE('',*,*,#469,.T.);
#610=ORIENTED_EDGE('',*,*,#470,.T.);
#611=ORIENTED_EDGE('',*,*,#471,.T.);
#612=ORIENTED_EDGE('',*,*,#472,.T.);
#613=ORIENTED_EDGE('',*,*,#473,.T.);
#614=ORIENTED_EDGE('',*,*,#474,.T.);
#615=ORIENTED_EDGE('',*,*,#471,.F.);
#616=ORIENTED_EDGE('',*,*,#475,.F.);
#617=ORIENTED_EDGE('',*,*,#476,.F.);
#618=ORIENTED_EDGE('',*,*,#477,.F.);
#619=ORIENTED_EDGE('',*,*,#478,.F.);
#620=ORIENTED_EDGE('',*,*,#461,.T.);
#621=ORIENTED_EDGE('',*,*,#470,.F.);
#622=ORIENTED_EDGE('',*,*,#479,.T.);
#623=ORIENTED_EDGE('',*,*,#480,.F.);
#624=ORIENTED_EDGE('',*,*,#481,.T.);
#625=ORIENTED_EDGE('',*,*,#482,.F.);
#626=ORIENTED_EDGE('',*,*,#475,.T.);
#627=ORIENTED_EDGE('',*,*,#483,.T.);
#628=ORIENTED_EDGE('',*,*,#469,.F.);
#629=ORIENTED_EDGE('',*,*,#484,.T.);
#630=ORIENTED_EDGE('',*,*,#485,.T.);
#631=ORIENTED_EDGE('',*,*,#486,.F.);
#632=ORIENTED_EDGE('',*,*,#479,.F.);
#633=ORIENTED_EDGE('',*,*,#445,.T.);
#634=ORIENTED_EDGE('',*,*,#482,.T.);
#635=ORIENTED_EDGE('',*,*,#487,.T.);
#636=ORIENTED_EDGE('',*,*,#488,.T.);
#637=ORIENTED_EDGE('',*,*,#476,.T.);
#638=ORIENTED_EDGE('',*,*,#488,.F.);
#639=ORIENTED_EDGE('',*,*,#489,.F.);
#640=ORIENTED_EDGE('',*,*,#490,.F.);
#641=ORIENTED_EDGE('',*,*,#485,.F.);
#642=ORIENTED_EDGE('',*,*,#491,.F.);
#643=ORIENTED_EDGE('',*,*,#492,.F.);
#644=ORIENTED_EDGE('',*,*,#493,.F.);
#645=ORIENTED_EDGE('',*,*,#494,.F.);
#646=ORIENTED_EDGE('',*,*,#495,.F.);
#647=ORIENTED_EDGE('',*,*,#496,.F.);
#648=ORIENTED_EDGE('',*,*,#497,.T.);
#649=ORIENTED_EDGE('',*,*,#498,.F.);
#650=ORIENTED_EDGE('',*,*,#499,.F.);
#651=ORIENTED_EDGE('',*,*,#477,.T.);
#652=ORIENTED_EDGE('',*,*,#500,.T.);
#653=ORIENTED_EDGE('',*,*,#501,.T.);
#654=ORIENTED_EDGE('',*,*,#462,.T.);
#655=ORIENTED_EDGE('',*,*,#502,.T.);
#656=ORIENTED_EDGE('',*,*,#503,.T.);
#657=ORIENTED_EDGE('',*,*,#504,.T.);
#658=ORIENTED_EDGE('',*,*,#505,.T.);
#659=ORIENTED_EDGE('',*,*,#506,.T.);
#660=ORIENTED_EDGE('',*,*,#507,.T.);
#661=ORIENTED_EDGE('',*,*,#508,.T.);
#662=ORIENTED_EDGE('',*,*,#509,.T.);
#663=ORIENTED_EDGE('',*,*,#510,.T.);
#664=ORIENTED_EDGE('',*,*,#511,.T.);
#665=ORIENTED_EDGE('',*,*,#512,.T.);
#666=ORIENTED_EDGE('',*,*,#513,.T.);
#667=ORIENTED_EDGE('',*,*,#514,.T.);
#668=ORIENTED_EDGE('',*,*,#515,.T.);
#669=ORIENTED_EDGE('',*,*,#490,.T.);
#670=ORIENTED_EDGE('',*,*,#516,.T.);
#671=ORIENTED_EDGE('',*,*,#480,.T.);
#672=ORIENTED_EDGE('',*,*,#486,.T.);
#673=ORIENTED_EDGE('',*,*,#492,.T.);
#674=ORIENTED_EDGE('',*,*,#517,.T.);
#675=ORIENTED_EDGE('',*,*,#518,.T.);
#676=ORIENTED_EDGE('',*,*,#519,.T.);
#677=ORIENTED_EDGE('',*,*,#519,.F.);
#678=ORIENTED_EDGE('',*,*,#520,.F.);
#679=ORIENTED_EDGE('',*,*,#521,.F.);
#680=ORIENTED_EDGE('',*,*,#493,.T.);
#681=ORIENTED_EDGE('',*,*,#518,.F.);
#682=ORIENTED_EDGE('',*,*,#522,.F.);
#683=ORIENTED_EDGE('',*,*,#474,.F.);
#684=ORIENTED_EDGE('',*,*,#523,.T.);
#685=ORIENTED_EDGE('',*,*,#524,.T.);
#686=ORIENTED_EDGE('',*,*,#525,.T.);
#687=ORIENTED_EDGE('',*,*,#526,.T.);
#688=ORIENTED_EDGE('',*,*,#527,.T.);
#689=ORIENTED_EDGE('',*,*,#528,.T.);
#690=ORIENTED_EDGE('',*,*,#529,.T.);
#691=ORIENTED_EDGE('',*,*,#530,.T.);
#692=ORIENTED_EDGE('',*,*,#531,.T.);
#693=ORIENTED_EDGE('',*,*,#532,.T.);
#694=ORIENTED_EDGE('',*,*,#533,.T.);
#695=ORIENTED_EDGE('',*,*,#534,.T.);
#696=ORIENTED_EDGE('',*,*,#535,.T.);
#697=ORIENTED_EDGE('',*,*,#536,.T.);
#698=ORIENTED_EDGE('',*,*,#537,.T.);
#699=ORIENTED_EDGE('',*,*,#472,.F.);
#700=ORIENTED_EDGE('',*,*,#538,.F.);
#701=ORIENTED_EDGE('',*,*,#539,.F.);
#702=ORIENTED_EDGE('',*,*,#540,.F.);
#703=ORIENTED_EDGE('',*,*,#541,.F.);
#704=ORIENTED_EDGE('',*,*,#542,.F.);
#705=ORIENTED_EDGE('',*,*,#543,.F.);
#706=ORIENTED_EDGE('',*,*,#520,.T.);
#707=ORIENTED_EDGE('',*,*,#544,.T.);
#708=ORIENTED_EDGE('',*,*,#545,.T.);
#709=ORIENTED_EDGE('',*,*,#546,.T.);
#710=ORIENTED_EDGE('',*,*,#547,.T.);
#711=ORIENTED_EDGE('',*,*,#539,.T.);
#712=ORIENTED_EDGE('',*,*,#548,.T.);
#713=ORIENTED_EDGE('',*,*,#498,.T.);
#714=ORIENTED_EDGE('',*,*,#549,.T.);
#715=ORIENTED_EDGE('',*,*,#549,.F.);
#716=ORIENTED_EDGE('',*,*,#497,.F.);
#717=ORIENTED_EDGE('',*,*,#550,.F.);
#718=ORIENTED_EDGE('',*,*,#540,.T.);
#719=ORIENTED_EDGE('',*,*,#496,.T.);
#720=ORIENTED_EDGE('',*,*,#551,.T.);
#721=ORIENTED_EDGE('',*,*,#541,.T.);
#722=ORIENTED_EDGE('',*,*,#550,.T.);
#723=ORIENTED_EDGE('',*,*,#551,.F.);
#724=ORIENTED_EDGE('',*,*,#495,.T.);
#725=ORIENTED_EDGE('',*,*,#552,.F.);
#726=ORIENTED_EDGE('',*,*,#542,.T.);
#727=ORIENTED_EDGE('',*,*,#543,.T.);
#728=ORIENTED_EDGE('',*,*,#552,.T.);
#729=ORIENTED_EDGE('',*,*,#494,.T.);
#730=ORIENTED_EDGE('',*,*,#521,.T.);
#731=ORIENTED_EDGE('',*,*,#455,.T.);
#732=ORIENTED_EDGE('',*,*,#459,.T.);
#733=ORIENTED_EDGE('',*,*,#553,.F.);
#734=ORIENTED_EDGE('',*,*,#447,.T.);
#735=ORIENTED_EDGE('',*,*,#554,.T.);
#736=ORIENTED_EDGE('',*,*,#555,.F.);
#737=ORIENTED_EDGE('',*,*,#523,.F.);
#738=ORIENTED_EDGE('',*,*,#473,.F.);
#739=ORIENTED_EDGE('',*,*,#537,.F.);
#740=ORIENTED_EDGE('',*,*,#556,.F.);
#741=ORIENTED_EDGE('',*,*,#554,.F.);
#742=ORIENTED_EDGE('',*,*,#454,.T.);
#743=ORIENTED_EDGE('',*,*,#465,.F.);
#744=ORIENTED_EDGE('',*,*,#517,.F.);
#745=ORIENTED_EDGE('',*,*,#491,.T.);
#746=ORIENTED_EDGE('',*,*,#484,.F.);
#747=ORIENTED_EDGE('',*,*,#522,.T.);
#748=ORIENTED_EDGE('',*,*,#500,.F.);
#749=ORIENTED_EDGE('',*,*,#557,.T.);
#750=ORIENTED_EDGE('',*,*,#547,.F.);
#751=ORIENTED_EDGE('',*,*,#557,.F.);
#752=ORIENTED_EDGE('',*,*,#501,.F.);
#753=ORIENTED_EDGE('',*,*,#558,.T.);
#754=ORIENTED_EDGE('',*,*,#546,.F.);
#755=ORIENTED_EDGE('',*,*,#558,.F.);
#756=ORIENTED_EDGE('',*,*,#535,.F.);
#757=ORIENTED_EDGE('',*,*,#559,.F.);
#758=ORIENTED_EDGE('',*,*,#508,.F.);
#759=ORIENTED_EDGE('',*,*,#560,.T.);
#760=ORIENTED_EDGE('',*,*,#527,.F.);
#761=ORIENTED_EDGE('',*,*,#561,.T.);
#762=ORIENTED_EDGE('',*,*,#504,.F.);
#763=ORIENTED_EDGE('',*,*,#562,.F.);
#764=ORIENTED_EDGE('',*,*,#526,.F.);
#765=ORIENTED_EDGE('',*,*,#563,.F.);
#766=ORIENTED_EDGE('',*,*,#505,.F.);
#767=ORIENTED_EDGE('',*,*,#561,.F.);
#768=ORIENTED_EDGE('',*,*,#555,.T.);
#769=ORIENTED_EDGE('',*,*,#556,.T.);
#770=ORIENTED_EDGE('',*,*,#536,.F.);
#771=ORIENTED_EDGE('',*,*,#560,.F.);
#772=ORIENTED_EDGE('',*,*,#507,.F.);
#773=ORIENTED_EDGE('',*,*,#564,.F.);
#774=ORIENTED_EDGE('',*,*,#524,.F.);
#775=ORIENTED_EDGE('',*,*,#525,.F.);
#776=ORIENTED_EDGE('',*,*,#564,.T.);
#777=ORIENTED_EDGE('',*,*,#506,.F.);
#778=ORIENTED_EDGE('',*,*,#563,.T.);
#779=ORIENTED_EDGE('',*,*,#562,.T.);
#780=ORIENTED_EDGE('',*,*,#515,.F.);
#781=ORIENTED_EDGE('',*,*,#565,.F.);
#782=ORIENTED_EDGE('',*,*,#528,.F.);
#783=ORIENTED_EDGE('',*,*,#513,.F.);
#784=ORIENTED_EDGE('',*,*,#566,.F.);
#785=ORIENTED_EDGE('',*,*,#530,.F.);
#786=ORIENTED_EDGE('',*,*,#567,.F.);
#787=ORIENTED_EDGE('',*,*,#511,.F.);
#788=ORIENTED_EDGE('',*,*,#568,.F.);
#789=ORIENTED_EDGE('',*,*,#532,.F.);
#790=ORIENTED_EDGE('',*,*,#569,.F.);
#791=ORIENTED_EDGE('',*,*,#512,.F.);
#792=ORIENTED_EDGE('',*,*,#569,.T.);
#793=ORIENTED_EDGE('',*,*,#531,.F.);
#794=ORIENTED_EDGE('',*,*,#566,.T.);
#795=ORIENTED_EDGE('',*,*,#568,.T.);
#796=ORIENTED_EDGE('',*,*,#510,.F.);
#797=ORIENTED_EDGE('',*,*,#570,.T.);
#798=ORIENTED_EDGE('',*,*,#533,.F.);
#799=ORIENTED_EDGE('',*,*,#567,.T.);
#800=ORIENTED_EDGE('',*,*,#529,.F.);
#801=ORIENTED_EDGE('',*,*,#565,.T.);
#802=ORIENTED_EDGE('',*,*,#514,.F.);
#803=ORIENTED_EDGE('',*,*,#503,.F.);
#804=ORIENTED_EDGE('',*,*,#571,.T.);
#805=ORIENTED_EDGE('',*,*,#544,.F.);
#806=ORIENTED_EDGE('',*,*,#571,.F.);
#807=ORIENTED_EDGE('',*,*,#502,.F.);
#808=ORIENTED_EDGE('',*,*,#572,.T.);
#809=ORIENTED_EDGE('',*,*,#545,.F.);
#810=ORIENTED_EDGE('',*,*,#572,.F.);
#811=ORIENTED_EDGE('',*,*,#458,.T.);
#812=ORIENTED_EDGE('',*,*,#468,.T.);
#813=ORIENTED_EDGE('',*,*,#449,.T.);
#814=ORIENTED_EDGE('',*,*,#573,.T.);
#815=ORIENTED_EDGE('',*,*,#483,.F.);
#816=ORIENTED_EDGE('',*,*,#573,.F.);
#817=ORIENTED_EDGE('',*,*,#448,.T.);
#818=ORIENTED_EDGE('',*,*,#553,.T.);
#819=ORIENTED_EDGE('',*,*,#559,.T.);
#820=ORIENTED_EDGE('',*,*,#534,.F.);
#821=ORIENTED_EDGE('',*,*,#570,.F.);
#822=ORIENTED_EDGE('',*,*,#509,.F.);
#823=ORIENTED_EDGE('',*,*,#548,.F.);
#824=ORIENTED_EDGE('',*,*,#538,.T.);
#825=ORIENTED_EDGE('',*,*,#478,.T.);
#826=ORIENTED_EDGE('',*,*,#499,.T.);
#827=ORIENTED_EDGE('',*,*,#487,.F.);
#828=ORIENTED_EDGE('',*,*,#481,.F.);
#829=ORIENTED_EDGE('',*,*,#516,.F.);
#830=ORIENTED_EDGE('',*,*,#489,.T.);
#831=ORIENTED_EDGE('',*,*,#466,.T.);
#832=CYLINDRICAL_SURFACE('',#902,1.9);
#833=CYLINDRICAL_SURFACE('',#908,1.9);
#834=CYLINDRICAL_SURFACE('',#913,2.0485);
#835=CYLINDRICAL_SURFACE('',#915,1.9);
#836=CYLINDRICAL_SURFACE('',#925,2.5);
#837=CYLINDRICAL_SURFACE('',#937,2.5);
#838=CYLINDRICAL_SURFACE('',#938,2.5);
#839=CYLINDRICAL_SURFACE('',#949,2.5);
#840=CYLINDRICAL_SURFACE('',#951,2.5);
#841=CYLINDRICAL_SURFACE('',#953,2.5);
#842=CYLINDRICAL_SURFACE('',#954,1.9);
#843=CYLINDRICAL_SURFACE('',#958,2.0785);
#844=CYLINDRICAL_SURFACE('',#959,2.0785);
#845=CYLINDRICAL_SURFACE('',#971,2.0785);
#846=CYLINDRICAL_SURFACE('',#972,2.0785);
#847=CYLINDRICAL_SURFACE('',#973,2.0485);
#848=ADVANCED_FACE('',(#53),#832,.F.);
#849=ADVANCED_FACE('',(#54),#833,.F.);
#850=ADVANCED_FACE('',(#55),#834,.F.);
#851=ADVANCED_FACE('',(#56),#835,.F.);
#852=ADVANCED_FACE('',(#57),#29,.T.);
#853=ADVANCED_FACE('',(#58,#15),#30,.F.);
#854=ADVANCED_FACE('',(#59,#16),#31,.F.);
#855=ADVANCED_FACE('',(#60,#17),#32,.F.);
#856=ADVANCED_FACE('',(#61),#836,.T.);
#857=ADVANCED_FACE('',(#62,#18,#19,#20,#21,#22,#23),#33,.F.);
#858=ADVANCED_FACE('',(#63),#837,.T.);
#859=ADVANCED_FACE('',(#64),#838,.T.);
#860=ADVANCED_FACE('',(#65),#34,.F.);
#861=ADVANCED_FACE('',(#66,#24,#25,#26,#27),#35,.F.);
#862=ADVANCED_FACE('',(#67),#839,.T.);
#863=ADVANCED_FACE('',(#68),#36,.F.);
#864=ADVANCED_FACE('',(#69),#840,.T.);
#865=ADVANCED_FACE('',(#70),#37,.T.);
#866=ADVANCED_FACE('',(#71),#841,.T.);
#867=ADVANCED_FACE('',(#72),#842,.F.);
#868=ADVANCED_FACE('',(#73),#38,.F.);
#869=ADVANCED_FACE('',(#74),#843,.F.);
#870=ADVANCED_FACE('',(#75),#844,.F.);
#871=ADVANCED_FACE('',(#76),#39,.T.);
#872=ADVANCED_FACE('',(#77),#40,.T.);
#873=ADVANCED_FACE('',(#78),#41,.F.);
#874=ADVANCED_FACE('',(#79),#42,.T.);
#875=ADVANCED_FACE('',(#80),#43,.T.);
#876=ADVANCED_FACE('',(#81),#44,.F.);
#877=ADVANCED_FACE('',(#82),#45,.F.);
#878=ADVANCED_FACE('',(#83),#46,.T.);
#879=ADVANCED_FACE('',(#84),#47,.T.);
#880=ADVANCED_FACE('',(#85),#48,.T.);
#881=ADVANCED_FACE('',(#86),#49,.T.);
#882=ADVANCED_FACE('',(#87),#845,.F.);
#883=ADVANCED_FACE('',(#88),#846,.F.);
#884=ADVANCED_FACE('',(#89),#847,.F.);
#885=ADVANCED_FACE('',(#90),#50,.T.);
#886=ADVANCED_FACE('',(#91),#51,.F.);
#887=ADVANCED_FACE('',(#92,#28),#52,.F.);
#888=CLOSED_SHELL('',(#848,#849,#850,#851,#852,#853,#854,#855,#856,#857,
#858,#859,#860,#861,#862,#863,#864,#865,#866,#867,#868,#869,#870,#871,#872,
#873,#874,#875,#876,#877,#878,#879,#880,#881,#882,#883,#884,#885,#886,#887));
#889=DERIVED_UNIT_ELEMENT(#891,1.);
#890=DERIVED_UNIT_ELEMENT(#1599,-3.);
#891=(
MASS_UNIT()
NAMED_UNIT(*)
SI_UNIT(.KILO.,.GRAM.)
);
#892=DERIVED_UNIT((#889,#890));
#893=MEASURE_REPRESENTATION_ITEM('density measure',
POSITIVE_RATIO_MEASURE(7850.),#892);
#894=PROPERTY_DEFINITION_REPRESENTATION(#899,#896);
#895=PROPERTY_DEFINITION_REPRESENTATION(#900,#897);
#896=REPRESENTATION('material name',(#898),#1596);
#897=REPRESENTATION('density',(#893),#1596);
#898=DESCRIPTIVE_REPRESENTATION_ITEM('Steel','Steel');
#899=PROPERTY_DEFINITION('material property','material name',#1606);
#900=PROPERTY_DEFINITION('material property','density of part',#1606);
#901=AXIS2_PLACEMENT_3D('',#1213,#977,#978);
#902=AXIS2_PLACEMENT_3D('',#1214,#979,#980);
#903=AXIS2_PLACEMENT_3D('',#1216,#981,#982);
#904=AXIS2_PLACEMENT_3D('',#1220,#984,#985);
#905=AXIS2_PLACEMENT_3D('',#1244,#986,#987);
#906=AXIS2_PLACEMENT_3D('',#1246,#988,#989);
#907=AXIS2_PLACEMENT_3D('',#1269,#990,#991);
#908=AXIS2_PLACEMENT_3D('',#1270,#992,#993);
#909=AXIS2_PLACEMENT_3D('',#1273,#994,#995);
#910=AXIS2_PLACEMENT_3D('',#1292,#996,#997);
#911=AXIS2_PLACEMENT_3D('',#1310,#998,#999);
#912=AXIS2_PLACEMENT_3D('',#1313,#1001,#1002);
#913=AXIS2_PLACEMENT_3D('',#1314,#1003,#1004);
#914=AXIS2_PLACEMENT_3D('',#1316,#1005,#1006);
#915=AXIS2_PLACEMENT_3D('',#1350,#1008,#1009);
#916=AXIS2_PLACEMENT_3D('',#1352,#1010,#1011);
#917=AXIS2_PLACEMENT_3D('',#1368,#1013,#1014);
#918=AXIS2_PLACEMENT_3D('',#1379,#1019,#1020);
#919=AXIS2_PLACEMENT_3D('',#1381,#1022,#1023);
#920=AXIS2_PLACEMENT_3D('',#1389,#1028,#1029);
#921=AXIS2_PLACEMENT_3D('',#1393,#1031,#1032);
#922=AXIS2_PLACEMENT_3D('',#1396,#1034,#1035);
#923=AXIS2_PLACEMENT_3D('',#1398,#1036,#1037);
#924=AXIS2_PLACEMENT_3D('',#1399,#1038,#1039);
#925=AXIS2_PLACEMENT_3D('',#1405,#1043,#1044);
#926=AXIS2_PLACEMENT_3D('',#1408,#1046,#1047);
#927=AXIS2_PLACEMENT_3D('',#1409,#1048,#1049);
#928=AXIS2_PLACEMENT_3D('',#1412,#1051,#1052);
#929=AXIS2_PLACEMENT_3D('',#1416,#1054,#1055);
#930=AXIS2_PLACEMENT_3D('',#1420,#1057,#1058);
#931=AXIS2_PLACEMENT_3D('',#1424,#1060,#1061);
#932=AXIS2_PLACEMENT_3D('',#1428,#1063,#1064);
#933=AXIS2_PLACEMENT_3D('',#1431,#1066,#1067);
#934=AXIS2_PLACEMENT_3D('',#1433,#1068,#1069);
#935=AXIS2_PLACEMENT_3D('',#1435,#1070,#1071);
#936=AXIS2_PLACEMENT_3D('',#1437,#1072,#1073);
#937=AXIS2_PLACEMENT_3D('',#1462,#1086,#1087);
#938=AXIS2_PLACEMENT_3D('',#1464,#1089,#1090);
#939=AXIS2_PLACEMENT_3D('',#1468,#1092,#1093);
#940=AXIS2_PLACEMENT_3D('',#1470,#1095,#1096);
#941=AXIS2_PLACEMENT_3D('',#1474,#1099,#1100);
#942=AXIS2_PLACEMENT_3D('',#1508,#1118,#1119);
#943=AXIS2_PLACEMENT_3D('',#1512,#1121,#1122);
#944=AXIS2_PLACEMENT_3D('',#1515,#1124,#1125);
#945=AXIS2_PLACEMENT_3D('',#1517,#1126,#1127);
#946=AXIS2_PLACEMENT_3D('',#1519,#1128,#1129);
#947=AXIS2_PLACEMENT_3D('',#1521,#1130,#1131);
#948=AXIS2_PLACEMENT_3D('',#1523,#1132,#1133);
#949=AXIS2_PLACEMENT_3D('',#1524,#1134,#1135);
#950=AXIS2_PLACEMENT_3D('',#1527,#1138,#1139);
#951=AXIS2_PLACEMENT_3D('',#1529,#1141,#1142);
#952=AXIS2_PLACEMENT_3D('',#1531,#1144,#1145);
#953=AXIS2_PLACEMENT_3D('',#1533,#1147,#1148);
#954=AXIS2_PLACEMENT_3D('',#1534,#1149,#1150);
#955=AXIS2_PLACEMENT_3D('',#1555,#1152,#1153);
#956=AXIS2_PLACEMENT_3D('',#1556,#1154,#1155);
#957=AXIS2_PLACEMENT_3D('',#1557,#1156,#1157);
#958=AXIS2_PLACEMENT_3D('',#1558,#1158,#1159);
#959=AXIS2_PLACEMENT_3D('',#1560,#1161,#1162);
#960=AXIS2_PLACEMENT_3D('',#1562,#1164,#1165);
#961=AXIS2_PLACEMENT_3D('',#1565,#1168,#1169);
#962=AXIS2_PLACEMENT_3D('',#1568,#1172,#1173);
#963=AXIS2_PLACEMENT_3D('',#1570,#1175,#1176);
#964=AXIS2_PLACEMENT_3D('',#1572,#1178,#1179);
#965=AXIS2_PLACEMENT_3D('',#1573,#1180,#1181);
#966=AXIS2_PLACEMENT_3D('',#1575,#1183,#1184);
#967=AXIS2_PLACEMENT_3D('',#1578,#1187,#1188);
#968=AXIS2_PLACEMENT_3D('',#1581,#1191,#1192);
#969=AXIS2_PLACEMENT_3D('',#1582,#1193,#1194);
#970=AXIS2_PLACEMENT_3D('',#1584,#1196,#1197);
#971=AXIS2_PLACEMENT_3D('',#1585,#1198,#1199);
#972=AXIS2_PLACEMENT_3D('',#1587,#1201,#1202);
#973=AXIS2_PLACEMENT_3D('',#1589,#1204,#1205);
#974=AXIS2_PLACEMENT_3D('',#1591,#1207,#1208);
#975=AXIS2_PLACEMENT_3D('',#1592,#1209,#1210);
#976=AXIS2_PLACEMENT_3D('',#1593,#1211,#1212);
#977=DIRECTION('axis',(0.,0.,1.));
#978=DIRECTION('refdir',(1.,0.,0.));
#979=DIRECTION('center_axis',(-1.,0.,0.));
#980=DIRECTION('ref_axis',(0.,1.,0.));
#981=DIRECTION('center_axis',(-1.,-2.71926214689378E-32,-1.22464679914735E-16));
#982=DIRECTION('ref_axis',(0.,1.,0.));
#983=DIRECTION('',(-1.,0.,0.));
#984=DIRECTION('center_axis',(0.707106781186548,0.707106781186548,0.));
#985=DIRECTION('ref_axis',(-0.707106781186548,0.707106781186548,0.));
#986=DIRECTION('center_axis',(0.707106781186548,-0.707106781186548,0.));
#987=DIRECTION('ref_axis',(0.707106781186548,0.707106781186548,0.));
#988=DIRECTION('center_axis',(0.707106781186548,-0.707106781186548,0.));
#989=DIRECTION('ref_axis',(0.707106781186548,0.707106781186548,0.));
#990=DIRECTION('center_axis',(0.707106781186548,0.707106781186548,0.));
#991=DIRECTION('ref_axis',(-0.707106781186548,0.707106781186548,0.));
#992=DIRECTION('center_axis',(-1.,0.,0.));
#993=DIRECTION('ref_axis',(0.,1.,0.));
#994=DIRECTION('center_axis',(-0.707106781186548,0.707106781186548,0.));
#995=DIRECTION('ref_axis',(0.707106781186548,0.707106781186548,0.));
#996=DIRECTION('center_axis',(-0.707106781186548,-0.707106781186548,0.));
#997=DIRECTION('ref_axis',(-0.707106781186548,0.707106781186548,0.));
#998=DIRECTION('center_axis',(-0.707106781186548,0.707106781186548,0.));
#999=DIRECTION('ref_axis',(0.707106781186548,0.707106781186548,0.));
#1000=DIRECTION('',(-1.,0.,0.));
#1001=DIRECTION('center_axis',(1.,2.71926214689378E-32,1.22464679914735E-16));
#1002=DIRECTION('ref_axis',(0.,1.,0.));
#1003=DIRECTION('center_axis',(-1.22766246794829E-16,3.13408670676521E-16,
1.));
#1004=DIRECTION('ref_axis',(-1.,-2.71926214689378E-32,-1.22163853813036E-16));
#1005=DIRECTION('center_axis',(-1.22464679914735E-16,2.22044604925042E-16,
1.));
#1006=DIRECTION('ref_axis',(-1.,-2.71926214689378E-32,-1.22163853813036E-16));
#1007=DIRECTION('',(-1.22766246794829E-16,3.13408670676521E-16,1.));
#1008=DIRECTION('center_axis',(0.,-1.,0.));
#1009=DIRECTION('ref_axis',(-1.,0.,0.));
#1010=DIRECTION('center_axis',(-5.26329050602771E-48,-1.,2.22044604925031E-16));
#1011=DIRECTION('ref_axis',(-1.,0.,0.));
#1012=DIRECTION('',(0.,-1.,0.));
#1013=DIRECTION('center_axis',(-8.65956056235493E-17,-0.707106781186547,
0.707106781186548));
#1014=DIRECTION('ref_axis',(1.,0.,1.22464679914735E-16));
#1015=DIRECTION('',(-8.65956056235494E-17,0.707106781186548,0.707106781186547));
#1016=DIRECTION('',(-1.,-2.71926214689378E-32,-1.22464679914735E-16));
#1017=DIRECTION('',(8.65956056235494E-17,-0.707106781186548,-0.707106781186547));
#1018=DIRECTION('',(1.,2.62862007533066E-32,1.18382523917577E-16));
#1019=DIRECTION('center_axis',(8.65956056235493E-17,0.707106781186547,-0.707106781186548));
#1020=DIRECTION('ref_axis',(0.,-0.707106781186548,-0.707106781186547));
#1021=DIRECTION('',(1.,2.62862007533066E-32,1.18382523917577E-16));
#1022=DIRECTION('center_axis',(1.,2.71926214689378E-32,1.22464679914735E-16));
#1023=DIRECTION('ref_axis',(1.22464679914735E-16,0.,-1.));
#1024=DIRECTION('',(-1.32153705619919E-45,-1.,2.22044604925042E-16));
#1025=DIRECTION('',(-1.22464679914735E-16,2.22044604925031E-16,1.));
#1026=DIRECTION('',(1.32153705619919E-45,1.,-2.22044604925042E-16));
#1027=DIRECTION('',(7.33600433843843E-62,-2.22044604925031E-16,-1.));
#1028=DIRECTION('center_axis',(1.22464679914735E-16,-2.22044604925042E-16,
-1.));
#1029=DIRECTION('ref_axis',(-1.,0.,-1.22464679914735E-16));
#1030=DIRECTION('',(1.32153705619919E-45,1.,-2.22044604925042E-16));
#1031=DIRECTION('center_axis',(1.22464679914735E-16,-2.22044604925042E-16,
-1.));
#1032=DIRECTION('ref_axis',(0.707106781186547,0.707106781186547,0.));
#1033=DIRECTION('',(-1.,-2.71926214689378E-32,-1.22464679914735E-16));
#1034=DIRECTION('center_axis',(1.22464679914735E-16,-2.22044604925042E-16,
-1.));
#1035=DIRECTION('ref_axis',(-0.707106781186547,0.707106781186548,-1.57009245868378E-16));
#1036=DIRECTION('center_axis',(1.22464679914735E-16,-2.22044604925042E-16,
-1.));
#1037=DIRECTION('ref_axis',(-1.,-2.71926214689378E-32,-1.22163853813036E-16));
#1038=DIRECTION('center_axis',(-1.,-2.71926214689378E-32,-1.22464679914735E-16));
#1039=DIRECTION('ref_axis',(-1.22464679914735E-16,0.,1.));
#1040=DIRECTION('',(1.22464679914735E-16,-2.22044604925031E-16,-1.));
#1041=DIRECTION('',(1.32153705619919E-45,1.,-2.22044604925042E-16));
#1042=DIRECTION('',(1.22464679914735E-16,-2.22044604925031E-16,-1.));
#1043=DIRECTION('center_axis',(-1.22464679914735E-16,2.22044604925031E-16,
1.));
#1044=DIRECTION('ref_axis',(-0.707106781186547,0.707106781186548,-1.57009245868378E-16));
#1045=DIRECTION('',(1.22464679914735E-16,-2.22044604925031E-16,-1.));
#1046=DIRECTION('center_axis',(-1.22464679914735E-16,2.22044604925042E-16,
1.));
#1047=DIRECTION('ref_axis',(-0.707106781186547,0.707106781186548,-1.57009245868378E-16));
#1048=DIRECTION('center_axis',(-1.22464679914735E-16,2.22044604925042E-16,
1.));
#1049=DIRECTION('ref_axis',(1.,0.,1.22464679914735E-16));
#1050=DIRECTION('',(-1.,-2.71926214689378E-32,-1.22464679914735E-16));
#1051=DIRECTION('center_axis',(-1.22464679914735E-16,2.22044604925042E-16,
1.));
#1052=DIRECTION('ref_axis',(0.707106781186547,0.707106781186547,0.));
#1053=DIRECTION('',(-1.,-2.62862007533066E-32,-1.18382523917577E-16));
#1054=DIRECTION('center_axis',(-1.22464679914735E-16,2.22044604925042E-16,
1.));
#1055=DIRECTION('ref_axis',(0.707106781186548,0.707106781186547,0.));
#1056=DIRECTION('',(4.3558266256781E-48,1.,-2.22044604925031E-16));
#1057=DIRECTION('center_axis',(-1.22464679914735E-16,2.22044604925042E-16,
1.));
#1058=DIRECTION('ref_axis',(0.707106781186547,-0.707106781186547,3.14018491736755E-16));
#1059=DIRECTION('',(1.,2.62862007533066E-32,1.18382523917577E-16));
#1060=DIRECTION('center_axis',(-1.22464679914735E-16,2.22044604925042E-16,
1.));
#1061=DIRECTION('ref_axis',(-0.707106781186547,-0.707106781186547,0.));
#1062=DIRECTION('',(4.3558266256781E-48,1.,-2.22044604925031E-16));
#1063=DIRECTION('center_axis',(-1.22464679914735E-16,2.22044604925042E-16,
1.));
#1064=DIRECTION('ref_axis',(-0.707106781186548,0.707106781186547,-3.14018491736755E-16));
#1065=DIRECTION('',(-1.,-2.62862007533066E-32,-1.18382523917577E-16));
#1066=DIRECTION('center_axis',(-1.22464679914735E-16,2.22044604925042E-16,
1.));
#1067=DIRECTION('ref_axis',(-1.,-2.4473359322044E-32,-1.09974814476676E-16));
#1068=DIRECTION('center_axis',(-1.22464679914735E-16,2.22044604925042E-16,
1.));
#1069=DIRECTION('ref_axis',(-1.,-2.4473359322044E-32,-1.09974814476676E-16));
#1070=DIRECTION('center_axis',(-1.22464679914735E-16,2.22044604925042E-16,
1.));
#1071=DIRECTION('ref_axis',(-1.,-2.4473359322044E-32,-1.09974814476676E-16));
#1072=DIRECTION('center_axis',(-1.22464679914735E-16,2.22044604925042E-16,
1.));
#1073=DIRECTION('ref_axis',(-1.,-2.4473359322044E-32,-1.09974814476676E-16));
#1074=DIRECTION('',(3.19418037709323E-35,-1.,2.22044604925042E-16));
#1075=DIRECTION('',(1.,2.71638619307366E-32,1.22464679914735E-16));
#1076=DIRECTION('',(-3.19418037709323E-35,1.,-2.22044604925042E-16));
#1077=DIRECTION('',(-1.,-2.71638619307366E-32,-1.22464679914735E-16));
#1078=DIRECTION('',(3.19418037709323E-35,-1.,2.22044604925042E-16));
#1079=DIRECTION('',(-1.,-2.7218254970378E-32,-1.22464679914735E-16));
#1080=DIRECTION('',(-3.24764399029061E-35,-1.,2.22044604925042E-16));
#1081=DIRECTION('',(-1.,-2.72567052225382E-32,-1.22464679914735E-16));
#1082=DIRECTION('',(-1.19001337273635E-34,-1.,2.22044604925042E-16));
#1083=DIRECTION('',(1.,2.72567052225382E-32,1.22464679914735E-16));
#1084=DIRECTION('',(-3.24764399029061E-35,-1.,2.22044604925042E-16));
#1085=DIRECTION('',(1.,2.7218254970378E-32,1.22464679914735E-16));
#1086=DIRECTION('center_axis',(1.22464679914735E-16,-2.22044604925031E-16,
-1.));
#1087=DIRECTION('ref_axis',(0.707106781186547,0.707106781186547,0.));
#1088=DIRECTION('',(-1.22464679914735E-16,2.22044604925031E-16,1.));
#1089=DIRECTION('center_axis',(1.26687599911795E-16,-2.22044604925031E-16,
-1.));
#1090=DIRECTION('ref_axis',(0.707106781186548,0.707106781186547,0.));
#1091=DIRECTION('',(-1.26687599911795E-16,2.22044604925031E-16,1.));
#1092=DIRECTION('center_axis',(1.18382523917577E-16,-2.22044604925031E-16,
-1.));
#1093=DIRECTION('ref_axis',(0.707106781186548,0.707106781186547,0.));
#1094=DIRECTION('',(1.26687599911795E-16,-2.22044604925031E-16,-1.));
#1095=DIRECTION('center_axis',(-1.,-2.8130298071315E-32,-1.26687599911795E-16));
#1096=DIRECTION('ref_axis',(-1.26687599911795E-16,0.,1.));
#1097=DIRECTION('',(4.3558266256781E-48,1.,-2.22044604925031E-16));
#1098=DIRECTION('',(-1.26687599911795E-16,2.22044604925031E-16,1.));
#1099=DIRECTION('center_axis',(1.18382523917577E-16,-2.22044604925031E-16,
-1.));
#1100=DIRECTION('ref_axis',(-1.,0.,-1.18382523917577E-16));
#1101=DIRECTION('',(1.,2.62862007533066E-32,1.18382523917577E-16));
#1102=DIRECTION('',(0.,-1.,0.));
#1103=DIRECTION('',(1.,2.62583998663788E-32,1.18382523917577E-16));
#1104=DIRECTION('',(3.19418037723884E-35,-1.,2.22044604925031E-16));
#1105=DIRECTION('',(-1.,-2.62583998663788E-32,-1.18382523917577E-16));
#1106=DIRECTION('',(-3.19418037723884E-35,1.,-2.22044604925031E-16));
#1107=DIRECTION('',(-1.,-2.63109798046987E-32,-1.18382523917577E-16));
#1108=DIRECTION('',(3.24764399012421E-35,1.,-2.22044604925031E-16));
#1109=DIRECTION('',(-1.,-2.6348148381787E-32,-1.18382523917577E-16));
#1110=DIRECTION('',(1.19001337271193E-34,1.,-2.22044604925031E-16));
#1111=DIRECTION('',(1.,2.6348148381787E-32,1.18382523917577E-16));
#1112=DIRECTION('',(3.24764399012421E-35,1.,-2.22044604925031E-16));
#1113=DIRECTION('',(1.,2.63109798046987E-32,1.18382523917577E-16));
#1114=DIRECTION('',(-3.19418037723884E-35,1.,-2.22044604925031E-16));
#1115=DIRECTION('',(1.,2.62583998663788E-32,1.18382523917577E-16));
#1116=DIRECTION('',(0.,1.,0.));
#1117=DIRECTION('',(1.,2.62862007533066E-32,1.18382523917577E-16));
#1118=DIRECTION('center_axis',(1.18382523917577E-16,-2.22044604925031E-16,
-1.));
#1119=DIRECTION('ref_axis',(-0.707106781186548,0.707106781186547,-3.14018491736755E-16));
#1120=DIRECTION('',(4.3558266256781E-48,1.,-2.22044604925031E-16));
#1121=DIRECTION('center_axis',(1.18382523917577E-16,-2.22044604925031E-16,
-1.));
#1122=DIRECTION('ref_axis',(-0.707106781186547,-0.707106781186547,0.));
#1123=DIRECTION('',(-1.,-2.62862007533066E-32,-1.18382523917577E-16));
#1124=DIRECTION('center_axis',(1.18382523917577E-16,-2.22044604925031E-16,
-1.));
#1125=DIRECTION('ref_axis',(0.707106781186547,-0.707106781186547,3.14018491736755E-16));
#1126=DIRECTION('center_axis',(1.18382523917577E-16,-2.22044604925031E-16,
-1.));
#1127=DIRECTION('ref_axis',(-1.,-2.4473359322044E-32,-1.09974814476676E-16));
#1128=DIRECTION('center_axis',(1.18382523917577E-16,-2.22044604925031E-16,
-1.));
#1129=DIRECTION('ref_axis',(-1.,-2.4473359322044E-32,-1.09974814476676E-16));
#1130=DIRECTION('center_axis',(1.18382523917577E-16,-2.22044604925031E-16,
-1.));
#1131=DIRECTION('ref_axis',(-1.,-2.4473359322044E-32,-1.09974814476676E-16));
#1132=DIRECTION('center_axis',(1.18382523917577E-16,-2.22044604925031E-16,
-1.));
#1133=DIRECTION('ref_axis',(-1.,-2.4473359322044E-32,-1.09974814476676E-16));
#1134=DIRECTION('center_axis',(-1.26687599911795E-16,2.22044604925031E-16,
1.));
#1135=DIRECTION('ref_axis',(-0.707106781186548,0.707106781186547,-3.14018491736755E-16));
#1136=DIRECTION('',(1.26687599911795E-16,-2.22044604925031E-16,-1.));
#1137=DIRECTION('',(-1.26687599911795E-16,2.22044604925031E-16,1.));
#1138=DIRECTION('center_axis',(1.,2.8130298071315E-32,1.26687599911795E-16));
#1139=DIRECTION('ref_axis',(1.26687599911795E-16,0.,-1.));
#1140=DIRECTION('',(1.26687599911795E-16,-2.22044604925031E-16,-1.));
#1141=DIRECTION('center_axis',(1.26687599911795E-16,-2.22044604925031E-16,
-1.));
#1142=DIRECTION('ref_axis',(-0.707106781186547,-0.707106781186547,0.));
#1143=DIRECTION('',(-1.26687599911795E-16,2.22044604925031E-16,1.));
#1144=DIRECTION('center_axis',(0.,-1.,2.22044604925031E-16));
#1145=DIRECTION('ref_axis',(0.,-2.22044604925031E-16,-1.));
#1146=DIRECTION('',(1.26687599911795E-16,-2.22044604925031E-16,-1.));
#1147=DIRECTION('center_axis',(-1.26687599911795E-16,2.22044604925031E-16,
1.));
#1148=DIRECTION('ref_axis',(0.707106781186547,-0.707106781186547,3.14018491736755E-16));
#1149=DIRECTION('center_axis',(0.,-1.,0.));
#1150=DIRECTION('ref_axis',(-1.,0.,0.));
#1151=DIRECTION('',(0.,-1.,0.));
#1152=DIRECTION('center_axis',(-2.96002046723766E-48,1.,-2.21809765474006E-16));
#1153=DIRECTION('ref_axis',(-1.,0.,0.));
#1154=DIRECTION('center_axis',(-2.96002046723766E-48,1.,-2.21809765474006E-16));
#1155=DIRECTION('ref_axis',(-1.,0.,0.));
#1156=DIRECTION('center_axis',(0.,-1.,2.22044604925031E-16));
#1157=DIRECTION('ref_axis',(0.,-2.22044604925031E-16,-1.));
#1158=DIRECTION('center_axis',(-1.3637302229593E-16,3.24902613204792E-16,
1.));
#1159=DIRECTION('ref_axis',(-1.,-2.4473359322044E-32,-1.09974814476676E-16));
#1160=DIRECTION('',(-1.3637302229593E-16,3.24902613204792E-16,1.));
#1161=DIRECTION('center_axis',(-1.3637302229593E-16,3.24902613204792E-16,
1.));
#1162=DIRECTION('ref_axis',(-1.,-2.4473359322044E-32,-1.09974814476676E-16));
#1163=DIRECTION('',(-1.3637302229593E-16,3.24902613204792E-16,1.));
#1164=DIRECTION('center_axis',(1.,3.0201506468658E-32,1.35871640182709E-16));
#1165=DIRECTION('ref_axis',(1.35871640182709E-16,0.,-1.));
#1166=DIRECTION('',(-1.35871640182709E-16,2.22253918348771E-16,1.));
#1167=DIRECTION('',(-1.35871640182709E-16,2.21809765474006E-16,1.));
#1168=DIRECTION('center_axis',(1.,3.0201506468658E-32,1.35871640182709E-16));
#1169=DIRECTION('ref_axis',(1.35871640182709E-16,0.,-1.));
#1170=DIRECTION('',(1.35871640182709E-16,-2.21809765474006E-16,-1.));
#1171=DIRECTION('',(1.35871640182709E-16,-2.22253918348771E-16,-1.));
#1172=DIRECTION('center_axis',(2.96002046723766E-48,-1.,2.21809765474006E-16));
#1173=DIRECTION('ref_axis',(0.,-2.21809765474006E-16,-1.));
#1174=DIRECTION('',(-1.35871640182709E-16,2.21809765474006E-16,1.));
#1175=DIRECTION('center_axis',(2.96002046723766E-48,-1.,2.21809765474006E-16));
#1176=DIRECTION('ref_axis',(0.,-2.21809765474006E-16,-1.));
#1177=DIRECTION('',(1.35871640182709E-16,-2.21809765474006E-16,-1.));
#1178=DIRECTION('center_axis',(-1.,-3.0201506468658E-32,-1.35871640182709E-16));
#1179=DIRECTION('ref_axis',(-1.35871640182709E-16,0.,1.));
#1180=DIRECTION('center_axis',(0.,-1.,2.22253918348771E-16));
#1181=DIRECTION('ref_axis',(0.,-2.22253918348771E-16,-1.));
#1182=DIRECTION('',(1.5530324661705E-16,-2.22253918348771E-16,-1.));
#1183=DIRECTION('center_axis',(2.10286752640791E-48,-1.,2.22567888484381E-16));
#1184=DIRECTION('ref_axis',(0.,-2.22567888484381E-16,-1.));
#1185=DIRECTION('',(2.2794865382047E-16,-2.22567888484381E-16,-1.));
#1186=DIRECTION('',(-1.5530324661705E-16,2.22567888484381E-16,1.));
#1187=DIRECTION('center_axis',(2.10286752640791E-48,-1.,2.22567888484381E-16));
#1188=DIRECTION('ref_axis',(0.,-2.22567888484381E-16,-1.));
#1189=DIRECTION('',(1.5530324661705E-16,-2.22567888484381E-16,-1.));
#1190=DIRECTION('',(-2.2794865382047E-16,2.22567888484381E-16,1.));
#1191=DIRECTION('center_axis',(1.,5.04957674434878E-32,2.2794865382047E-16));
#1192=DIRECTION('ref_axis',(2.2794865382047E-16,0.,-1.));
#1193=DIRECTION('center_axis',(1.,3.44517715987564E-32,1.5530324661705E-16));
#1194=DIRECTION('ref_axis',(1.5530324661705E-16,0.,-1.));
#1195=DIRECTION('',(-1.5530324661705E-16,2.22253918348771E-16,1.));
#1196=DIRECTION('center_axis',(1.,3.44517715987564E-32,1.5530324661705E-16));
#1197=DIRECTION('ref_axis',(1.5530324661705E-16,0.,-1.));
#1198=DIRECTION('center_axis',(-1.3637302229593E-16,3.24902613204792E-16,
1.));
#1199=DIRECTION('ref_axis',(-1.,-2.4473359322044E-32,-1.09974814476676E-16));
#1200=DIRECTION('',(-1.3637302229593E-16,3.24902613204792E-16,1.));
#1201=DIRECTION('center_axis',(-1.3637302229593E-16,3.24902613204792E-16,
1.));
#1202=DIRECTION('ref_axis',(-1.,-2.4473359322044E-32,-1.09974814476676E-16));
#1203=DIRECTION('',(-1.3637302229593E-16,3.24902613204792E-16,1.));
#1204=DIRECTION('center_axis',(-1.22766246794829E-16,3.13408670676521E-16,
1.));
#1205=DIRECTION('ref_axis',(-1.,-2.71926214689378E-32,-1.22163853813036E-16));
#1206=DIRECTION('',(-1.22766246794829E-16,3.13408670676521E-16,1.));
#1207=DIRECTION('center_axis',(0.,-1.,2.22253918348771E-16));
#1208=DIRECTION('ref_axis',(0.,-2.22253918348771E-16,-1.));
#1209=DIRECTION('center_axis',(0.,-1.,2.22044604925031E-16));
#1210=DIRECTION('ref_axis',(0.,-2.22044604925031E-16,-1.));
#1211=DIRECTION('center_axis',(-5.26329050602771E-48,-1.,2.22044604925031E-16));
#1212=DIRECTION('ref_axis',(0.,-2.22044604925031E-16,-1.));
#1213=CARTESIAN_POINT('',(0.,0.,0.));
#1214=CARTESIAN_POINT('Origin',(23.2000007629395,12.2,5.99999999999999));
#1215=CARTESIAN_POINT('',(23.2000007629395,10.3,5.99999999999999));
#1216=CARTESIAN_POINT('Origin',(23.2000007629395,12.2,5.99999999999999));
#1217=CARTESIAN_POINT('',(12.1000007629395,10.3,5.99999999999999));
#1218=CARTESIAN_POINT('',(23.2000007629395,10.3,5.99999999999999));
#1219=CARTESIAN_POINT('',(11.9404177668746,10.4595829960592,6.76219987694213));
#1220=CARTESIAN_POINT('Origin',(10.2000007629395,12.2,5.99999999999999));
#1221=CARTESIAN_POINT('',(12.2485007629395,11.5400000000113,7.78168459611398));
#1222=CARTESIAN_POINT('Ctrl Pts',(12.2485007629395,11.5400000000226,7.78168459611399));
#1223=CARTESIAN_POINT('Ctrl Pts',(12.2485007629396,11.5275329467373,7.77706635156835));
#1224=CARTESIAN_POINT('Ctrl Pts',(12.2483869175185,11.5151690135003,7.77233743581131));
#1225=CARTESIAN_POINT('Ctrl Pts',(12.2450597749674,11.3314056639113,7.69986334190288));
#1226=CARTESIAN_POINT('Ctrl Pts',(12.2188714707215,11.1593245207754,7.60140696392697));
#1227=CARTESIAN_POINT('Ctrl Pts',(12.1378083724061,10.857611184925,7.35849245484297));
#1228=CARTESIAN_POINT('Ctrl Pts',(12.0838677957228,10.727715428031,7.21405089704613));
#1229=CARTESIAN_POINT('Ctrl Pts',(12.0031308137208,10.5653375907008,6.97484090748827));
#1230=CARTESIAN_POINT('Ctrl Pts',(11.9702624565753,10.5076590678339,6.87197739767165));
#1231=CARTESIAN_POINT('Ctrl Pts',(11.9404177668794,10.4595829960628,6.76219987693924));
#1232=CARTESIAN_POINT('',(11.2804178245923,13.2804169832347,7.56291363845677));
#1233=CARTESIAN_POINT('Ctrl Pts',(11.2804178069121,13.2804169790868,7.56291367365605));
#1234=CARTESIAN_POINT('Ctrl Pts',(11.3498237933046,13.2373310913063,7.59269825197392));
#1235=CARTESIAN_POINT('Ctrl Pts',(11.4155575490188,13.1907351368048,7.62222476060339));
#1236=CARTESIAN_POINT('Ctrl Pts',(11.657892256991,12.9975605043477,7.73248267680036));
#1237=CARTESIAN_POINT('Ctrl Pts',(11.8438247857735,12.7861001675827,7.8198419665446));
#1238=CARTESIAN_POINT('Ctrl Pts',(12.05747773898,12.422317629371,7.89357292351129));
#1239=CARTESIAN_POINT('Ctrl Pts',(12.1350323545228,12.2396221499148,7.90886553636815));
#1240=CARTESIAN_POINT('Ctrl Pts',(12.2283375754272,11.87831565157,7.88067596908461));
#1241=CARTESIAN_POINT('Ctrl Pts',(12.2485007629377,11.7003489561295,7.84108361166238));
#1242=CARTESIAN_POINT('Ctrl Pts',(12.2485007629395,11.5400000000226,7.78168459611399));
#1243=CARTESIAN_POINT('',(12.1000007629395,14.1,6.));
#1244=CARTESIAN_POINT('Origin',(10.2000007629395,12.2,5.99999999999999));
#1245=CARTESIAN_POINT('',(11.2804178245923,13.2804169832347,4.43708636154322));
#1246=CARTESIAN_POINT('Origin',(10.2000007629395,12.2,5.99999999999999));
#1247=CARTESIAN_POINT('',(12.2485007629395,11.5400000000113,4.218315403886));
#1248=CARTESIAN_POINT('Ctrl Pts',(12.2485007629395,11.5400000000226,4.218315403886));
#1249=CARTESIAN_POINT('Ctrl Pts',(12.2485007629377,11.7003489561295,4.15891638833761));
#1250=CARTESIAN_POINT('Ctrl Pts',(12.2283375754272,11.87831565157,4.11932403091537));
#1251=CARTESIAN_POINT('Ctrl Pts',(12.1350323545228,12.2396221499148,4.09113446363184));
#1252=CARTESIAN_POINT('Ctrl Pts',(12.05747773898,12.422317629371,4.1064270764887));
#1253=CARTESIAN_POINT('Ctrl Pts',(11.8438247857735,12.7861001675827,4.18015803345538));
#1254=CARTESIAN_POINT('Ctrl Pts',(11.657892256991,12.9975605043477,4.26751732319963));
#1255=CARTESIAN_POINT('Ctrl Pts',(11.4155575490187,13.1907351368048,4.37777523939659));
#1256=CARTESIAN_POINT('Ctrl Pts',(11.3498237933046,13.2373310913063,4.40730174802608));
#1257=CARTESIAN_POINT('Ctrl Pts',(11.2804178069121,13.2804169790868,4.43708632634395));
#1258=CARTESIAN_POINT('',(11.9404177668746,10.4595829960592,5.23780012305787));
#1259=CARTESIAN_POINT('Ctrl Pts',(11.9404177668794,10.4595829960628,5.23780012306075));
#1260=CARTESIAN_POINT('Ctrl Pts',(11.9702624565753,10.5076590678339,5.12802260232834));
#1261=CARTESIAN_POINT('Ctrl Pts',(12.0031308137208,10.5653375907008,5.02515909251172));
#1262=CARTESIAN_POINT('Ctrl Pts',(12.0838677957228,10.727715428031,4.78594910295386));
#1263=CARTESIAN_POINT('Ctrl Pts',(12.1378083724061,10.857611184925,4.64150754515702));
#1264=CARTESIAN_POINT('Ctrl Pts',(12.2188714707215,11.1593245207754,4.39859303607302));
#1265=CARTESIAN_POINT('Ctrl Pts',(12.2450597749674,11.3314056639113,4.30013665809711));
#1266=CARTESIAN_POINT('Ctrl Pts',(12.2483869175185,11.5151690135003,4.22766256418868));
#1267=CARTESIAN_POINT('Ctrl Pts',(12.2485007629396,11.5275329467373,4.22293364843164));
#1268=CARTESIAN_POINT('Ctrl Pts',(12.2485007629395,11.5400000000226,4.218315403886));
#1269=CARTESIAN_POINT('Origin',(10.2000007629395,12.2,5.99999999999999));
#1270=CARTESIAN_POINT('Origin',(23.2000007629395,12.2,5.99999999999999));
#1271=CARTESIAN_POINT('',(8.4595837590043,10.4595829960592,5.23780012305787));
#1272=CARTESIAN_POINT('',(8.30000076293947,10.3,5.99999999999999));
#1273=CARTESIAN_POINT('Origin',(10.2000007629395,12.2,5.99999999999999));
#1274=CARTESIAN_POINT('',(9.11958370128666,13.2804169832347,4.43708636154322));
#1275=CARTESIAN_POINT('Ctrl Pts',(9.11958371896686,13.2804169790868,4.43708632634395));
#1276=CARTESIAN_POINT('Ctrl Pts',(9.05017773257434,13.2373310913063,4.40730174802608));
#1277=CARTESIAN_POINT('Ctrl Pts',(8.98444397686018,13.1907351368048,4.37777523939659));
#1278=CARTESIAN_POINT('Ctrl Pts',(8.74210926888797,12.9975605043477,4.26751732319963));
#1279=CARTESIAN_POINT('Ctrl Pts',(8.5561767401054,12.7861001675827,4.18015803345538));
#1280=CARTESIAN_POINT('Ctrl Pts',(8.34252378689891,12.422317629371,4.1064270764887));
#1281=CARTESIAN_POINT('Ctrl Pts',(8.26496917135609,12.2396221499148,4.09113446363184));
#1282=CARTESIAN_POINT('Ctrl Pts',(8.16817246340698,11.8647955404129,4.12037888623874));
#1283=CARTESIAN_POINT('Ctrl Pts',(8.14876142488885,11.6727548529061,4.16551257100845));
#1284=CARTESIAN_POINT('Ctrl Pts',(8.15494175091149,11.3314056639113,4.30013665809711));
#1285=CARTESIAN_POINT('Ctrl Pts',(8.18113005515745,11.1593245207754,4.39859303607302));
#1286=CARTESIAN_POINT('Ctrl Pts',(8.26219315347285,10.857611184925,4.64150754515702));
#1287=CARTESIAN_POINT('Ctrl Pts',(8.31613373015614,10.727715428031,4.78594910295386));
#1288=CARTESIAN_POINT('Ctrl Pts',(8.39687071215809,10.5653375907008,5.02515909251172));
#1289=CARTESIAN_POINT('Ctrl Pts',(8.42973906930364,10.5076590678339,5.12802260232835));
#1290=CARTESIAN_POINT('Ctrl Pts',(8.45958375899951,10.4595829960628,5.23780012306076));
#1291=CARTESIAN_POINT('',(9.11958370128664,13.2804169832347,7.56291363845677));
#1292=CARTESIAN_POINT('Origin',(10.2000007629395,12.2,5.99999999999999));
#1293=CARTESIAN_POINT('',(8.45958375900429,10.4595829960592,6.76219987694212));
#1294=CARTESIAN_POINT('Ctrl Pts',(8.45958375899951,10.4595829960628,6.76219987693924));
#1295=CARTESIAN_POINT('Ctrl Pts',(8.42973906930363,10.5076590678339,6.87197739767165));
#1296=CARTESIAN_POINT('Ctrl Pts',(8.39687071215809,10.5653375907008,6.97484090748827));
#1297=CARTESIAN_POINT('Ctrl Pts',(8.31613373015614,10.727715428031,7.21405089704613));
#1298=CARTESIAN_POINT('Ctrl Pts',(8.26219315347285,10.857611184925,7.35849245484297));
#1299=CARTESIAN_POINT('Ctrl Pts',(8.18113005515745,11.1593245207754,7.60140696392697));
#1300=CARTESIAN_POINT('Ctrl Pts',(8.15494175091149,11.3314056639113,7.69986334190288));
#1301=CARTESIAN_POINT('Ctrl Pts',(8.14876142488885,11.6727548529061,7.83448742899154));
#1302=CARTESIAN_POINT('Ctrl Pts',(8.16817246340698,11.8647955404129,7.87962111376125));
#1303=CARTESIAN_POINT('Ctrl Pts',(8.26496917135609,12.2396221499148,7.90886553636815));
#1304=CARTESIAN_POINT('Ctrl Pts',(8.34252378689891,12.422317629371,7.89357292351129));
#1305=CARTESIAN_POINT('Ctrl Pts',(8.5561767401054,12.7861001675827,7.8198419665446));
#1306=CARTESIAN_POINT('Ctrl Pts',(8.74210926888797,12.9975605043477,7.73248267680036));
#1307=CARTESIAN_POINT('Ctrl Pts',(8.98444397686018,13.1907351368048,7.62222476060339));
#1308=CARTESIAN_POINT('Ctrl Pts',(9.05017773257432,13.2373310913063,7.59269825197392));
#1309=CARTESIAN_POINT('Ctrl Pts',(9.11958371896684,13.2804169790868,7.56291367365605));
#1310=CARTESIAN_POINT('Origin',(10.2000007629395,12.2,5.99999999999999));
#1311=CARTESIAN_POINT('',(-2.79999923706054,10.3,5.99999999999999));
#1312=CARTESIAN_POINT('',(23.2000007629395,10.3,5.99999999999999));
#1313=CARTESIAN_POINT('Origin',(-2.79999923706054,12.2,5.99999999999999));
#1314=CARTESIAN_POINT('Origin',(10.2000007629395,11.54,8.5085));
#1315=CARTESIAN_POINT('',(12.2485007629395,11.54,-1.52610418486425E-15));
#1316=CARTESIAN_POINT('Origin',(10.2000007629395,11.54,-1.77635683940025E-15));
#1317=CARTESIAN_POINT('',(12.2485007629395,11.54,8.5085));
#1318=CARTESIAN_POINT('Ctrl Pts',(11.2804178114381,13.2804169762771,4.43708637432729));
#1319=CARTESIAN_POINT('Ctrl Pts',(11.1807437968237,13.3422926682231,4.36818333137421));
#1320=CARTESIAN_POINT('Ctrl Pts',(11.0708462965097,13.3984611818643,4.30650054096442));
#1321=CARTESIAN_POINT('Ctrl Pts',(10.8373479274145,13.4908386117893,4.20561242709831));
#1322=CARTESIAN_POINT('Ctrl Pts',(10.7135834221032,13.5273023458304,4.1661193799434));
#1323=CARTESIAN_POINT('Ctrl Pts',(10.4593287039531,13.5761312936305,4.11331490409242));
#1324=CARTESIAN_POINT('Ctrl Pts',(10.3288398836688,13.5885,4.1));
#1325=CARTESIAN_POINT('Ctrl Pts',(10.0711616422101,13.5885,4.1));
#1326=CARTESIAN_POINT('Ctrl Pts',(9.9406728219258,13.5761312936305,4.11331490409242));
#1327=CARTESIAN_POINT('Ctrl Pts',(9.68641810377576,13.5273023458304,4.1661193799434));
#1328=CARTESIAN_POINT('Ctrl Pts',(9.56265359846448,13.4908386117893,4.20561242709831));
#1329=CARTESIAN_POINT('Ctrl Pts',(9.32915522936925,13.3984611818644,4.30650054096442));
#1330=CARTESIAN_POINT('Ctrl Pts',(9.21925772905518,13.3422926682231,4.36818333137421));
#1331=CARTESIAN_POINT('Ctrl Pts',(9.1195837144408,13.2804169762771,4.43708637432729));
#1332=CARTESIAN_POINT('Ctrl Pts',(8.4595837590043,10.4595829960551,5.23780012305608));
#1333=CARTESIAN_POINT('Ctrl Pts',(8.55410361797869,10.307323295247,5.02197226117269));
#1334=CARTESIAN_POINT('Ctrl Pts',(8.69060437946487,10.1377275108433,4.82239061496572));
#1335=CARTESIAN_POINT('Ctrl Pts',(9.01174818633123,9.85871968955771,4.50124680809936));
#1336=CARTESIAN_POINT('Ctrl Pts',(9.21389149695218,9.72713985340413,4.35630277558295));
#1337=CARTESIAN_POINT('Ctrl Pts',(9.56265359846448,9.5891613882107,4.20561242709831));
#1338=CARTESIAN_POINT('Ctrl Pts',(9.68641810377576,9.55269765416955,4.1661193799434));
#1339=CARTESIAN_POINT('Ctrl Pts',(9.94067282192579,9.50386870636955,4.11331490409242));
#1340=CARTESIAN_POINT('Ctrl Pts',(10.0711616422101,9.4915,4.1));
#1341=CARTESIAN_POINT('Ctrl Pts',(10.3288398836688,9.4915,4.1));
#1342=CARTESIAN_POINT('Ctrl Pts',(10.4593287039531,9.50386870636954,4.11331490409242));
#1343=CARTESIAN_POINT('Ctrl Pts',(10.7135834221032,9.55269765416955,4.1661193799434));
#1344=CARTESIAN_POINT('Ctrl Pts',(10.8373479274145,9.5891613882107,4.20561242709831));
#1345=CARTESIAN_POINT('Ctrl Pts',(11.1861100289268,9.72713985340413,4.35630277558295));
#1346=CARTESIAN_POINT('Ctrl Pts',(11.3882533395477,9.85871968955771,4.50124680809936));
#1347=CARTESIAN_POINT('Ctrl Pts',(11.7093971464141,10.1377275108433,4.82239061496571));
#1348=CARTESIAN_POINT('Ctrl Pts',(11.8458979079002,10.307323295247,5.02197226117269));
#1349=CARTESIAN_POINT('Ctrl Pts',(11.9404177668746,10.4595829960551,5.23780012305607));
#1350=CARTESIAN_POINT('Origin',(10.2000007629395,25.2,6.));
#1351=CARTESIAN_POINT('',(12.1000007629395,25.2,6.));
#1352=CARTESIAN_POINT('Origin',(10.2000007629395,25.2,6.));
#1353=CARTESIAN_POINT('',(12.1000007629395,25.2,6.));
#1354=CARTESIAN_POINT('Ctrl Pts',(9.11958371444078,13.2804169762771,7.5629136256727));
#1355=CARTESIAN_POINT('Ctrl Pts',(9.21925772905516,13.3422926682231,7.63181666862579));
#1356=CARTESIAN_POINT('Ctrl Pts',(9.32915522936924,13.3984611818643,7.69349945903558));
#1357=CARTESIAN_POINT('Ctrl Pts',(9.56265359846448,13.4908386117893,7.7943875729017));
#1358=CARTESIAN_POINT('Ctrl Pts',(9.68641810377575,13.5273023458304,7.8338806200566));
#1359=CARTESIAN_POINT('Ctrl Pts',(9.94067282192579,13.5761312936305,7.88668509590758));
#1360=CARTESIAN_POINT('Ctrl Pts',(10.0711616422101,13.5885,7.9));
#1361=CARTESIAN_POINT('Ctrl Pts',(10.3288398836688,13.5885,7.9));
#1362=CARTESIAN_POINT('Ctrl Pts',(10.4593287039531,13.5761312936305,7.88668509590758));
#1363=CARTESIAN_POINT('Ctrl Pts',(10.7135834221032,13.5273023458304,7.8338806200566));
#1364=CARTESIAN_POINT('Ctrl Pts',(10.8373479274144,13.4908386117893,7.7943875729017));
#1365=CARTESIAN_POINT('Ctrl Pts',(11.0708462965097,13.3984611818643,7.69349945903559));
#1366=CARTESIAN_POINT('Ctrl Pts',(11.1807437968238,13.3422926682231,7.63181666862579));
#1367=CARTESIAN_POINT('Ctrl Pts',(11.2804178114382,13.2804169762771,7.5629136256727));
#1368=CARTESIAN_POINT('Origin',(3.70000076293946,1.7000000000001,9.5));
#1369=CARTESIAN_POINT('',(23.2000007629395,-0.799999999999901,7.00000000000001));
#1370=CARTESIAN_POINT('',(23.2000007629395,4.2000000000001,12.));
#1371=CARTESIAN_POINT('',(23.2000007629395,2.20000000000008,9.99999999999998));
#1372=CARTESIAN_POINT('',(-2.79999923706054,4.2000000000001,12.));
#1373=CARTESIAN_POINT('',(3.70000076293946,4.2000000000001,12.));
#1374=CARTESIAN_POINT('',(-2.79999923706054,-0.799999999999901,7.));
#1375=CARTESIAN_POINT('',(-2.79999923706054,2.20000000000008,9.99999999999997));
#1376=CARTESIAN_POINT('',(8.58445132079911,-0.799999999999903,7.00000000000001));
#1377=CARTESIAN_POINT('',(10.2000007629395,-0.799999999999901,7.00000000000001));
#1378=CARTESIAN_POINT('',(11.8155502050798,-0.799999999999903,7.00000000000001));
#1379=CARTESIAN_POINT('Origin',(10.2000007629395,-1.7999999999999,6.));
#1380=CARTESIAN_POINT('',(10.2000007629395,-0.799999999999901,7.00000000000001));
#1381=CARTESIAN_POINT('Origin',(-2.79999923706054,11.2,2.));
#1382=CARTESIAN_POINT('',(-2.79999923706054,22.7,12.));
#1383=CARTESIAN_POINT('',(-2.79999923706054,11.2,12.));
#1384=CARTESIAN_POINT('',(-2.79999923706054,22.7,-5.66213742558842E-15));
#1385=CARTESIAN_POINT('',(-2.79999923706054,22.7,1.99999999999999));
#1386=CARTESIAN_POINT('',(-2.79999923706054,-0.799999999999901,-4.44089209849955E-16));
#1387=CARTESIAN_POINT('',(-2.79999923706054,11.2,-3.10862446895044E-15));
#1388=CARTESIAN_POINT('',(-2.79999923706054,-0.799999999999901,3.75));
#1389=CARTESIAN_POINT('Origin',(10.2000007629395,11.2,12.));
#1390=CARTESIAN_POINT('',(23.2000007629395,22.7,12.));
#1391=CARTESIAN_POINT('',(23.2000007629395,11.2,12.));
#1392=CARTESIAN_POINT('',(20.7000007629395,25.2,12.));
#1393=CARTESIAN_POINT('Origin',(20.7000007629395,22.7,12.));
#1394=CARTESIAN_POINT('',(-0.29999923706054,25.2,12.));
#1395=CARTESIAN_POINT('',(10.2000007629395,25.2,12.));
#1396=CARTESIAN_POINT('Origin',(-0.299999237060538,22.7,12.));
#1397=CARTESIAN_POINT('',(12.2485007629395,11.54,12.));
#1398=CARTESIAN_POINT('Origin',(10.2000007629395,11.54,12.));
#1399=CARTESIAN_POINT('Origin',(23.2000007629395,11.2,2.));
#1400=CARTESIAN_POINT('',(23.2000007629395,-0.799999999999903,5.97986490942913E-15));
#1401=CARTESIAN_POINT('',(23.2000007629395,-0.799999999999901,2.75));
#1402=CARTESIAN_POINT('',(23.2000007629395,22.7,-2.10942374678792E-15));
#1403=CARTESIAN_POINT('',(23.2000007629395,11.2,4.44089209850063E-16));
#1404=CARTESIAN_POINT('',(23.2000007629395,22.7,2.));
#1405=CARTESIAN_POINT('Origin',(-0.299999237060537,22.7,1.99999999999999));
#1406=CARTESIAN_POINT('',(-0.299999237060538,25.2,-5.72677123760535E-15));
#1407=CARTESIAN_POINT('',(-0.299999237060537,25.2,1.99999999999999));
#1408=CARTESIAN_POINT('Origin',(-0.299999237060537,22.7,-5.27355936696949E-15));
#1409=CARTESIAN_POINT('Origin',(10.2000007629395,11.2,-1.33226762955019E-15));
#1410=CARTESIAN_POINT('',(20.7000007629395,25.2,-3.15501295939591E-15));
#1411=CARTESIAN_POINT('',(10.2000007629395,25.2,-4.44089209850063E-15));
#1412=CARTESIAN_POINT('Origin',(20.7000007629395,22.7,-2.77555756156289E-15));
#1413=CARTESIAN_POINT('',(37.7000007629395,-0.799999999999903,7.69641150623401E-15));
#1414=CARTESIAN_POINT('',(10.2000007629395,-0.799999999999903,4.44089209850063E-15));
#1415=CARTESIAN_POINT('',(40.2000007629395,-3.2999999999999,8.32667268468867E-15));
#1416=CARTESIAN_POINT('Origin',(37.7000007629395,-3.2999999999999,5.55111512312578E-15));
#1417=CARTESIAN_POINT('',(40.2000007629395,-24.2999999999999,1.29896093881143E-14));
#1418=CARTESIAN_POINT('',(40.2000007629395,-13.7999999999999,1.06581410364015E-14));
#1419=CARTESIAN_POINT('',(37.7000007629395,-26.7999999999999,1.30254820244348E-14));
#1420=CARTESIAN_POINT('Origin',(37.7000007629395,-24.2999999999999,9.99200722162641E-15));
#1421=CARTESIAN_POINT('',(-17.2999992370605,-26.7999999999999,6.514443208968E-15));
#1422=CARTESIAN_POINT('',(10.2000007629395,-26.7999999999999,9.76996261670138E-15));
#1423=CARTESIAN_POINT('',(-19.7999992370605,-24.2999999999999,5.88418203051333E-15));
#1424=CARTESIAN_POINT('Origin',(-17.2999992370605,-24.2999999999999,3.33066907387547E-15));
#1425=CARTESIAN_POINT('',(-19.7999992370605,-3.2999999999999,1.22124532708767E-15));
#1426=CARTESIAN_POINT('',(-19.7999992370605,-13.7999999999999,3.5527136788005E-15));
#1427=CARTESIAN_POINT('',(-17.2999992370605,-0.799999999999903,1.18537269076725E-15));
#1428=CARTESIAN_POINT('Origin',(-17.2999992370605,-3.2999999999999,-1.11022302462516E-15));
#1429=CARTESIAN_POINT('',(10.2000007629395,-0.799999999999903,4.44089209850063E-15));
#1430=CARTESIAN_POINT('',(-12.4514992370605,-19.6562780898876,5.55765317009052E-15));
#1431=CARTESIAN_POINT('Origin',(-14.5299992370605,-19.6562780898876,5.32907051820075E-15));
#1432=CARTESIAN_POINT('',(-12.4514992370605,-9.51372191011236,2.00493949129002E-15));
#1433=CARTESIAN_POINT('Origin',(-14.5299992370605,-9.51372191011236,1.77635683940025E-15));
#1434=CARTESIAN_POINT('',(36.7785007629395,-19.6562780898876,1.26630805276915E-14));
#1435=CARTESIAN_POINT('Origin',(34.7000007629395,-19.6562780898876,1.24344978758018E-14));
#1436=CARTESIAN_POINT('',(36.7785007629395,-9.51372191011236,9.11036684889102E-15));
#1437=CARTESIAN_POINT('Origin',(34.7000007629395,-9.51372191011236,8.88178419700125E-15));
#1438=CARTESIAN_POINT('',(-10.3084992370605,-17.6085000000001,2.55825547922565E-15));
#1439=CARTESIAN_POINT('',(-10.3084992370605,-24.8785,3.99680288865056E-15));
#1440=CARTESIAN_POINT('',(-10.3084992370605,-1.71,-8.88178419700125E-16));
#1441=CARTESIAN_POINT('',(30.7085007629395,-24.8785,9.32587340685131E-15));
#1442=CARTESIAN_POINT('',(10.2000007629395,-24.8785,6.66133814775094E-15));
#1443=CARTESIAN_POINT('',(30.7085007629395,-4.3615,4.44089209850063E-15));
#1444=CARTESIAN_POINT('',(30.7085007629395,-1.71,3.99680288865056E-15));
#1445=CARTESIAN_POINT('',(-10.3084992370605,-4.3615,-4.44089209850063E-16));
#1446=CARTESIAN_POINT('',(10.2000007629395,-4.3615,2.22044604925031E-15));
#1447=CARTESIAN_POINT('',(-10.3084992370605,-11.5915000000001,1.22598784967546E-15));
#1448=CARTESIAN_POINT('',(-10.3084992370605,-1.71,-8.88178419700125E-16));
#1449=CARTESIAN_POINT('',(-13.4085007629395,-11.5915000000001,8.88178419700125E-16));
#1450=CARTESIAN_POINT('',(-0.374999999999993,-11.5915000000001,2.44249065417534E-15));
#1451=CARTESIAN_POINT('',(-13.4085007629395,-12.5415,1.07502895474464E-15));
#1452=CARTESIAN_POINT('',(-13.4085007629395,-1.70000000000005,-1.33226762955019E-15));
#1453=CARTESIAN_POINT('',(-18.7085007629395,-12.5415,4.44089209850063E-16));
#1454=CARTESIAN_POINT('',(-2.44999999999999,-12.5415,2.44249065417534E-15));
#1455=CARTESIAN_POINT('',(-18.7085007629395,-16.5585,1.33226762955019E-15));
#1456=CARTESIAN_POINT('',(-18.7085007629395,-1.675,-1.99840144432528E-15));
#1457=CARTESIAN_POINT('',(-13.4085007629395,-16.5585,1.96698213272854E-15));
#1458=CARTESIAN_POINT('',(-2.44999999999999,-16.5585,3.33066907387547E-15));
#1459=CARTESIAN_POINT('',(-13.4085007629395,-17.6085000000001,2.22044604925031E-15));
#1460=CARTESIAN_POINT('',(-13.4085007629395,-1.70000000000005,-1.33226762955019E-15));
#1461=CARTESIAN_POINT('',(-0.374999999999993,-17.6085000000001,3.77475828372553E-15));
#1462=CARTESIAN_POINT('Origin',(20.7000007629395,22.7,2.));
#1463=CARTESIAN_POINT('',(20.7000007629395,25.2,2.));
#1464=CARTESIAN_POINT('Origin',(37.7000007629395,-3.2999999999999,3.50000000000001));
#1465=CARTESIAN_POINT('',(37.7000007629395,-0.799999999999901,7.00000000000001));
#1466=CARTESIAN_POINT('',(37.7000007629395,-0.799999999999901,3.50000000000001));
#1467=CARTESIAN_POINT('',(40.2000007629395,-3.2999999999999,7.00000000000001));
#1468=CARTESIAN_POINT('Origin',(37.7000007629395,-3.2999999999999,7.00000000000001));
#1469=CARTESIAN_POINT('',(40.2000007629395,-3.2999999999999,3.50000000000001));
#1470=CARTESIAN_POINT('Origin',(40.2000007629395,-13.7999999999999,3.50000000000001));
#1471=CARTESIAN_POINT('',(40.2000007629395,-24.2999999999999,7.00000000000001));
#1472=CARTESIAN_POINT('',(40.2000007629395,-13.7999999999999,7.00000000000001));
#1473=CARTESIAN_POINT('',(40.2000007629395,-24.2999999999999,3.50000000000001));
#1474=CARTESIAN_POINT('Origin',(10.2000007629395,-13.7999999999999,7.00000000000001));
#1475=CARTESIAN_POINT('',(10.2000007629395,-0.799999999999901,7.00000000000001));
#1476=CARTESIAN_POINT('',(11.8155502050798,-4.3615,7.00000000000001));
#1477=CARTESIAN_POINT('',(11.8155502050798,25.2,7.));
#1478=CARTESIAN_POINT('',(30.7085007629395,-4.3615,7.00000000000001));
#1479=CARTESIAN_POINT('',(10.2000007629395,-4.3615,7.00000000000001));
#1480=CARTESIAN_POINT('',(30.7085007629395,-24.8785,7.00000000000001));
#1481=CARTESIAN_POINT('',(30.7085007629395,-14.21,7.00000000000001));
#1482=CARTESIAN_POINT('',(-10.3084992370605,-24.8785,7.00000000000001));
#1483=CARTESIAN_POINT('',(10.2000007629395,-24.8785,7.00000000000001));
#1484=CARTESIAN_POINT('',(-10.3084992370605,-17.6085000000001,7.00000000000001));
#1485=CARTESIAN_POINT('',(-10.3084992370605,-14.21,7.00000000000001));
#1486=CARTESIAN_POINT('',(-13.4085007629395,-17.6085000000001,7.00000000000001));
#1487=CARTESIAN_POINT('',(-0.374999999999995,-17.6085000000001,7.00000000000001));
#1488=CARTESIAN_POINT('',(-13.4085007629395,-16.5585,7.00000000000001));
#1489=CARTESIAN_POINT('',(-13.4085007629395,-14.2,7.00000000000001));
#1490=CARTESIAN_POINT('',(-18.7085007629395,-16.5585,7.00000000000001));
#1491=CARTESIAN_POINT('',(-2.44999999999999,-16.5585,7.00000000000001));
#1492=CARTESIAN_POINT('',(-18.7085007629395,-12.5415,7.));
#1493=CARTESIAN_POINT('',(-18.7085007629395,-14.175,7.));
#1494=CARTESIAN_POINT('',(-13.4085007629395,-12.5415,7.00000000000001));
#1495=CARTESIAN_POINT('',(-2.44999999999999,-12.5415,7.00000000000001));
#1496=CARTESIAN_POINT('',(-13.4085007629395,-11.5915000000001,7.));
#1497=CARTESIAN_POINT('',(-13.4085007629395,-14.2,7.00000000000001));
#1498=CARTESIAN_POINT('',(-10.3084992370605,-11.5915000000001,7.00000000000001));
#1499=CARTESIAN_POINT('',(-0.374999999999995,-11.5915000000001,7.00000000000001));
#1500=CARTESIAN_POINT('',(-10.3084992370605,-4.3615,7.));
#1501=CARTESIAN_POINT('',(-10.3084992370605,-14.21,7.00000000000001));
#1502=CARTESIAN_POINT('',(8.58445132079912,-4.3615,7.00000000000001));
#1503=CARTESIAN_POINT('',(10.2000007629395,-4.3615,7.00000000000001));
#1504=CARTESIAN_POINT('',(8.58445132079911,25.2,7.));
#1505=CARTESIAN_POINT('',(-17.2999992370605,-0.799999999999901,7.));
#1506=CARTESIAN_POINT('',(10.2000007629395,-0.799999999999901,7.00000000000001));
#1507=CARTESIAN_POINT('',(-19.7999992370605,-3.2999999999999,7.));
#1508=CARTESIAN_POINT('Origin',(-17.2999992370605,-3.2999999999999,7.));
#1509=CARTESIAN_POINT('',(-19.7999992370605,-24.2999999999999,7.00000000000001));
#1510=CARTESIAN_POINT('',(-19.7999992370605,-13.7999999999999,7.));
#1511=CARTESIAN_POINT('',(-17.2999992370605,-26.7999999999999,7.00000000000001));
#1512=CARTESIAN_POINT('Origin',(-17.2999992370605,-24.2999999999999,7.00000000000001));
#1513=CARTESIAN_POINT('',(37.7000007629395,-26.7999999999999,7.00000000000001));
#1514=CARTESIAN_POINT('',(10.2000007629395,-26.7999999999999,7.00000000000001));
#1515=CARTESIAN_POINT('Origin',(37.7000007629395,-24.2999999999999,7.00000000000001));
#1516=CARTESIAN_POINT('',(36.7785007629395,-9.51372191011236,7.00000000000001));
#1517=CARTESIAN_POINT('Origin',(34.7000007629395,-9.51372191011236,7.00000000000001));
#1518=CARTESIAN_POINT('',(36.7785007629395,-19.6562780898876,7.00000000000001));
#1519=CARTESIAN_POINT('Origin',(34.7000007629395,-19.6562780898876,7.00000000000001));
#1520=CARTESIAN_POINT('',(-12.4514992370605,-9.51372191011236,7.));
#1521=CARTESIAN_POINT('Origin',(-14.5299992370605,-9.51372191011236,7.));
#1522=CARTESIAN_POINT('',(-12.4514992370605,-19.6562780898876,7.00000000000001));
#1523=CARTESIAN_POINT('Origin',(-14.5299992370605,-19.6562780898876,7.00000000000001));
#1524=CARTESIAN_POINT('Origin',(-17.2999992370605,-3.2999999999999,3.5));
#1525=CARTESIAN_POINT('',(-17.2999992370605,-0.799999999999901,3.5));
#1526=CARTESIAN_POINT('',(-19.7999992370605,-3.2999999999999,3.5));
#1527=CARTESIAN_POINT('Origin',(-19.7999992370605,-13.7999999999999,3.5));
#1528=CARTESIAN_POINT('',(-19.7999992370605,-24.2999999999999,3.50000000000001));
#1529=CARTESIAN_POINT('Origin',(-17.2999992370605,-24.2999999999999,3.50000000000001));
#1530=CARTESIAN_POINT('',(-17.2999992370605,-26.7999999999999,3.50000000000001));
#1531=CARTESIAN_POINT('Origin',(10.2000007629395,-26.7999999999999,3.50000000000001));
#1532=CARTESIAN_POINT('',(37.7000007629395,-26.7999999999999,3.50000000000001));
#1533=CARTESIAN_POINT('Origin',(37.7000007629395,-24.2999999999999,3.50000000000001));
#1534=CARTESIAN_POINT('Origin',(10.2000007629395,25.2,6.));
#1535=CARTESIAN_POINT('Ctrl Pts',(11.9404177668746,10.4595829960551,6.76219987694392));
#1536=CARTESIAN_POINT('Ctrl Pts',(11.8458979079002,10.307323295247,6.97802773882732));
#1537=CARTESIAN_POINT('Ctrl Pts',(11.7093971464141,10.1377275108433,7.17760938503429));
#1538=CARTESIAN_POINT('Ctrl Pts',(11.3882533395477,9.85871968955771,7.49875319190065));
#1539=CARTESIAN_POINT('Ctrl Pts',(11.1861100289268,9.72713985340414,7.64369722441705));
#1540=CARTESIAN_POINT('Ctrl Pts',(10.8373479274145,9.58916138821071,7.7943875729017));
#1541=CARTESIAN_POINT('Ctrl Pts',(10.7135834221032,9.55269765416956,7.8338806200566));
#1542=CARTESIAN_POINT('Ctrl Pts',(10.4593287039531,9.50386870636955,7.88668509590758));
#1543=CARTESIAN_POINT('Ctrl Pts',(10.3288398836688,9.4915,7.9));
#1544=CARTESIAN_POINT('Ctrl Pts',(10.0711616422101,9.4915,7.9));
#1545=CARTESIAN_POINT('Ctrl Pts',(9.94067282192579,9.50386870636955,7.88668509590758));
#1546=CARTESIAN_POINT('Ctrl Pts',(9.68641810377576,9.55269765416956,7.8338806200566));
#1547=CARTESIAN_POINT('Ctrl Pts',(9.56265359846448,9.5891613882107,7.7943875729017));
#1548=CARTESIAN_POINT('Ctrl Pts',(9.21389149695218,9.72713985340413,7.64369722441705));
#1549=CARTESIAN_POINT('Ctrl Pts',(9.01174818633123,9.85871968955771,7.49875319190065));
#1550=CARTESIAN_POINT('Ctrl Pts',(8.69060437946487,10.1377275108433,7.17760938503429));
#1551=CARTESIAN_POINT('Ctrl Pts',(8.55410361797869,10.307323295247,6.97802773882731));
#1552=CARTESIAN_POINT('Ctrl Pts',(8.45958375900429,10.4595829960551,6.76219987694392));
#1553=CARTESIAN_POINT('',(12.1000007629395,-4.3615,6.));
#1554=CARTESIAN_POINT('',(12.1000007629395,25.2,6.));
#1555=CARTESIAN_POINT('Origin',(10.2000007629395,-4.3615,6.));
#1556=CARTESIAN_POINT('Origin',(10.2000007629395,-4.3615,6.));
#1557=CARTESIAN_POINT('Origin',(10.2000007629395,-0.799999999999901,3.5));
#1558=CARTESIAN_POINT('Origin',(-14.5299992370605,-19.6562780898876,8.0085));
#1559=CARTESIAN_POINT('',(-12.4514992370605,-19.6562780898876,8.0085));
#1560=CARTESIAN_POINT('Origin',(-14.5299992370605,-9.51372191011236,8.00850000000001));
#1561=CARTESIAN_POINT('',(-12.4514992370605,-9.51372191011236,8.00850000000001));
#1562=CARTESIAN_POINT('Origin',(-10.3084992370605,-14.62,3.5));
#1563=CARTESIAN_POINT('',(-10.3084992370605,-11.5915000000001,3.5));
#1564=CARTESIAN_POINT('',(-10.3084992370605,-4.3615,3.5));
#1565=CARTESIAN_POINT('Origin',(-10.3084992370605,-14.62,3.5));
#1566=CARTESIAN_POINT('',(-10.3084992370605,-24.8785,3.5));
#1567=CARTESIAN_POINT('',(-10.3084992370605,-17.6085000000001,3.5));
#1568=CARTESIAN_POINT('Origin',(10.2000007629395,-24.8785,3.50000000000001));
#1569=CARTESIAN_POINT('',(30.7085007629395,-24.8785,3.50000000000001));
#1570=CARTESIAN_POINT('Origin',(10.2000007629395,-4.3615,3.5));
#1571=CARTESIAN_POINT('',(30.7085007629395,-4.3615,3.5));
#1572=CARTESIAN_POINT('Origin',(30.7085007629395,-14.62,3.50000000000001));
#1573=CARTESIAN_POINT('Origin',(-10.9500007629394,-17.6085000000001,3.5));
#1574=CARTESIAN_POINT('',(-13.4085007629395,-17.6085000000001,3.5));
#1575=CARTESIAN_POINT('Origin',(-15.1000007629395,-16.5585,3.5));
#1576=CARTESIAN_POINT('',(-18.7085007629395,-16.5585,3.5));
#1577=CARTESIAN_POINT('',(-13.4085007629395,-16.5585,3.5));
#1578=CARTESIAN_POINT('Origin',(-15.1000007629395,-12.5415,3.5));
#1579=CARTESIAN_POINT('',(-13.4085007629395,-12.5415,3.5));
#1580=CARTESIAN_POINT('',(-18.7085007629395,-12.5415,3.5));
#1581=CARTESIAN_POINT('Origin',(-18.7085007629395,-14.55,3.5));
#1582=CARTESIAN_POINT('Origin',(-13.4085007629395,-14.6000000000001,3.5));
#1583=CARTESIAN_POINT('',(-13.4085007629395,-11.5915000000001,3.5));
#1584=CARTESIAN_POINT('Origin',(-13.4085007629395,-14.6000000000001,3.5));
#1585=CARTESIAN_POINT('Origin',(34.7000007629395,-9.51372191011236,8.00850000000001));
#1586=CARTESIAN_POINT('',(36.7785007629395,-9.51372191011236,8.00850000000001));
#1587=CARTESIAN_POINT('Origin',(34.7000007629395,-19.6562780898876,8.0085));
#1588=CARTESIAN_POINT('',(36.7785007629395,-19.6562780898876,8.0085));
#1589=CARTESIAN_POINT('Origin',(10.2000007629395,11.54,8.5085));
#1590=CARTESIAN_POINT('',(12.2485007629395,11.54,8.5085));
#1591=CARTESIAN_POINT('Origin',(-10.9500007629394,-11.5915000000001,3.5));
#1592=CARTESIAN_POINT('Origin',(10.2000007629395,-0.799999999999901,3.5));
#1593=CARTESIAN_POINT('Origin',(10.2000007629395,25.2,1.99999999999999));
#1594=UNCERTAINTY_MEASURE_WITH_UNIT(LENGTH_MEASURE(0.01),#1598,
'DISTANCE_ACCURACY_VALUE',
'Maximum model space distance between geometric entities at asserted c
onnectivities');
#1595=UNCERTAINTY_MEASURE_WITH_UNIT(LENGTH_MEASURE(0.01),#1598,
'DISTANCE_ACCURACY_VALUE',
'Maximum model space distance between geometric entities at asserted c
onnectivities');
#1596=(
GEOMETRIC_REPRESENTATION_CONTEXT(3)
GLOBAL_UNCERTAINTY_ASSIGNED_CONTEXT((#1594))
GLOBAL_UNIT_ASSIGNED_CONTEXT((#1598,#1600,#1601))
REPRESENTATION_CONTEXT('','3D')
);
#1597=(
GEOMETRIC_REPRESENTATION_CONTEXT(3)
GLOBAL_UNCERTAINTY_ASSIGNED_CONTEXT((#1595))
GLOBAL_UNIT_ASSIGNED_CONTEXT((#1598,#1600,#1601))
REPRESENTATION_CONTEXT('','3D')
);
#1598=(
LENGTH_UNIT()
NAMED_UNIT(*)
SI_UNIT(.MILLI.,.METRE.)
);
#1599=(
LENGTH_UNIT()
NAMED_UNIT(*)
SI_UNIT($,.METRE.)
);
#1600=(
NAMED_UNIT(*)
PLANE_ANGLE_UNIT()
SI_UNIT($,.RADIAN.)
);
#1601=(
NAMED_UNIT(*)
SI_UNIT($,.STERADIAN.)
SOLID_ANGLE_UNIT()
);
#1602=SHAPE_DEFINITION_REPRESENTATION(#1603,#1604);
#1603=PRODUCT_DEFINITION_SHAPE('',$,#1606);
#1604=SHAPE_REPRESENTATION('',(#901),#1596);
#1605=PRODUCT_DEFINITION_CONTEXT('part definition',#1610,'design');
#1606=PRODUCT_DEFINITION('Servo_Holder','Servo_Holder v5',#1607,#1605);
#1607=PRODUCT_DEFINITION_FORMATION('',$,#1612);
#1608=PRODUCT_RELATED_PRODUCT_CATEGORY('Servo_Holder v5',
'Servo_Holder v5',(#1612));
#1609=APPLICATION_PROTOCOL_DEFINITION('international standard',
'automotive_design',2009,#1610);
#1610=APPLICATION_CONTEXT(
'Core Data for Automotive Mechanical Design Process');
#1611=PRODUCT_CONTEXT('part definition',#1610,'mechanical');
#1612=PRODUCT('Servo_Holder','Servo_Holder v5',$,(#1611));
#1613=PRESENTATION_STYLE_ASSIGNMENT((#1614));
#1614=SURFACE_STYLE_USAGE(.BOTH.,#1615);
#1615=SURFACE_SIDE_STYLE('',(#1616));
#1616=SURFACE_STYLE_FILL_AREA(#1617);
#1617=FILL_AREA_STYLE('Steel - Satin',(#1618));
#1618=FILL_AREA_STYLE_COLOUR('Steel - Satin',#1619);
#1619=COLOUR_RGB('Steel - Satin',0.627450980392157,0.627450980392157,0.627450980392157);
ENDSEC;
END-ISO-10303-21;
